<?xml version="1.0" encoding="UTF-8"?><svg id="b" xmlns="http://www.w3.org/2000/svg" viewBox="0 0 32 20.05"><g id="c"><path d="M31.1.35c-.36.16-.72-.25-.95-.28-1-.15-2.32,0-3.36,0-.19,0-.76.52-1.16.28v.28s5.47,0,5.47,0v-.28Z"/><path d="M31.78,10.61c-1-5.02-7.03-6.71-11.09-4.1l.28-6.17-.2-.25h-3.74l-.62,19.33c.25.45,3.41.18,3.82.25v-1.22c5.77,4.02,13.13-.96,11.55-7.84ZM26.74,15.64c-6.4,4.89-9.27-7.07-2.01-7.29,3.59.21,4.23,5.09,2.01,7.29Z"/><path d="M6.7.38c-1.12.15-1.98.81-3.02,1.14-.34-.33-.46-.5-.37-1.03L.25.63s-.08.83-.1.84c-.12.88-.28.54.03.74.16,5.5-.49,11.36.13,16.95l.48.06.14.83h3.05c.44,0,.08-1.29.07-1.56-.05-1.67.05-3.34,0-5.01C15.8,21.77,20.38-1.04,6.7.38ZM8.53,11.47c-6.12,1.26-6.18-7.61-.68-7.62,1.3,0,2.99.68,3.43,2,.7,2.07-.49,5.15-2.75,5.61Z"/></g></svg>