<svg title="{{ craft.app.systemName }}" xmlns="http://www.w3.org/2000/svg" viewBox="0 0 1000 97"><path d="M694.53 15.88c-2.62.87-4.37 2.34-6.83 3.17.58-1.68-.99-4.45-2.6-4.45h-17.05c-.76.55-.81.65-.81 1.51 0 5.15 1.53 10.36 1.17 15.55l2.94.03c2.13 17.39 1.41 35.06 1.51 52.64l19.29-.75-3-31.49c-1.83-14.94 8.38-23.95 23.02-21.92V15.7c-3.92-3.49-12.93-1.4-17.63.17ZM605.84 13.39c-21.15 2.41-33.12 21.06-29.3 41.52 8.04 43.07 81.17 40.08 78.44-8-1.52-26.85-25.25-36.24-49.14-33.52Zm5.9 56.74c-19.9-3.38-20.14-39.94 1.5-42.66 2.51-.32 3.41-.15 5.77.52 22.85 6.44 19.62 46.71-7.28 42.14ZM591.78 14.32c-1.25.59-2.55-.93-3.33-1.06-3.51-.56-8.18 0-11.86 0-.66 0-2.69 1.95-4.07 1.06v1.04h19.27v-1.04ZM917.54 79.6V38.06c0-5.92-6.42-14.56-11.62-17.3-10.24-5.39-30.07-4.39-38.53 4.27-11.75-9.81-28.86-9.62-41.79-2.18l.54-2.23h1.68V18.4h-19.28l.32 8.21 4.87.69v53.41h14.83V43.99c0-1.88 3.32-7.82 4.83-9.27 6.01-5.78 18.52-5.34 22.76 2.44.59 1.07 2.07 5.18 2.07 6.09v37.46h14.83V45.47c0-2.16 2.56-7.48 4.06-9.29 5.86-7.08 19.68-7.5 23.99 1.25.34.69 1.6 3.94 1.6 4.33v38.95h15.57c.2-.54-.74-.89-.74-1.11ZM420.79 32.31l1.36-29.93-.99-1.23h-18.17l-3.01 93.75c.09.32 2.44 1.2 2.64 1.2h15.94v-5.93c11.89 8.33 28.15 9.16 40.72 1.79 13.4-7.86 18.36-25.07 15.43-39.8-4.85-24.36-34.19-32.56-53.92-19.86Zm29.39 44.25c-7.85 7.75-21.12 7.36-27.49-2.01-9.07-13.31 1.06-34.31 17.72-33.35 17.44 1 20.57 24.7 9.77 35.36ZM753.42 39.73c-5.13-2.76-4.44-8.44.23-11.3 9.16-5.6 22.07.8 31.15 2.96l5.84-12.94c-16.34-8.31-59.57-11.18-60.02 15.18-.42 24.61 29.34 18.61 42.06 25.41 5.5 2.94 4.13 9.26-1.47 11.44-6.15 2.39-14.45 1.3-20.71-.38-2.96-.79-11.91-5.4-13.44-4.9-1.42.46-6.25 11.16-5.36 12.55 1.15 1.79 12.73 5.58 15.36 6.18 17.83 4.02 51.51 1.99 47.01-24.03-3.19-18.43-29.3-14.06-40.65-20.16ZM520.37 13.39c-44.19 3.3-42.78 63.51-.13 70.9 18.85 3.27 41.05-6.56 43.84-27.18 3.78-27.91-16.77-45.74-43.71-43.72Zm10.1 56.84c-29.38 4.05-31.73-41.08-5.63-42.79 23.81-1.56 29.16 39.55 5.63 42.79ZM999.21 76.47c-.44-12.64 1.17-34.54-3.32-45.64-8.36-20.66-40.11-18.2-55.87-8.06-.84 1.44 4.85 10.05 6.26 11.75 9.19-5.91 24.33-9.77 32.94-1.1l-1.48 1.1c4.93-1.12 4.09 5.5 5.19 8.91h-24.1c-2.03 0-9.32 2.39-11.28 3.55-8.09 4.8-10.53 15.1-6.79 23.43 6.71 14.96 33.13 16.57 43.65 4.92l.75 6.68h14.83c.13-1.9-.71-3.65-.77-5.53Zm-16.1-14.71c-3.02 12-28.81 13.92-28.42-.16.32-11.26 20.94-6.94 28.24-7.79-.52 2.44.72 5.77.17 7.94ZM.06 14.2C-.43 35.29 2.08 56.37 1.5 77.46 1.38 81.61.08 86.29.75 90.72l2.27.31.67 4h14.72c2.13 0 .37-6.21.33-7.51-.26-8.01.24-16.08.04-24.09 4.16 3.62 9.25 6.95 14.89 7.71C88.73 78.59 83.1-6.58 31.51.41c-5.39.73-9.52 3.9-14.57 5.46-1.62-1.6-2.21-2.4-1.76-4.93L.41 1.61.01 5.2l.05 8.99Zm42.73 42.4c-28.63 5.71-32.23-39.44-5.72-39.45 6.26 0 14.26 3.33 16.53 9.62 4.38 12.14.08 27.66-10.81 29.83ZM228.53 19.7l-7.06-2.21-27.79-.75V1.9h-15.2c-.13 0-1.85 1.72-1.85 1.85v12.98c-1.75.07-10.38-.75-10.38 1.85v12.24h11.12c.8 9.21.21 18.61.75 27.81.3 5.12.87 11.55 3.17 16.11 5.14 10.17 18.61 12.81 28.85 10.01 11.35-3.1 7.6-7.88 3.2-16.01-8.98 4.4-17.05 3.29-18.17-7.89-.94-9.34.09-20.49-.75-30.04h16.31c.15 0 1.52-2.41 1.54-2.56.34-2.59-.35-5.87-.05-8.57h16.31ZM229.38 31.51l2.23.75c-2.75 9.9-3.6 20.46.17 30.23 9.43 24.47 46.6 28.02 63.58 9.82l-9.25-9.88c-8.12 7.62-18.46 9.29-28.76 4.89-4.76-2.03-10.94-7.73-10.92-13.19h50.79c.76 0 1.16-1.73 1.15-2.56-.04-5.37-2.53-14.68-5.09-19.46-12-22.42-52.36-24.68-63.9-.6Zm15.57 11.5c1.87-10.81 11.56-16.79 22.28-14.51 2.78.59 3.42 2.08 5.19 2.97 1.21.61 2.63.27 4.08 1.11 2.38 1.38 5.59 7.51 5.52 10.43h-37.07Z"/><path d="M132.72 16.44C101.09 4.75 72.84 35.98 88.64 65.73c11.25 21.17 47.15 25.57 61.53 5.8l-8.49-9.21c-11.35 10.91-34.76 9.16-39.57-7.47h50.42c.15 0 1.52-2.41 1.54-2.56 1.93-14.38-7.73-30.81-21.35-35.85Zm-31.35 26.54c.78-20.84 32.99-18.8 35.59 0h-35.59ZM343.65 14.5c-4.84.66-9.07 3.34-13.16 5.74l-.75-5.19H311.2l3.82 67.77 1 1.23h16.68c.15-12.33-1.9-25.93-.77-38.24 1.12-12.22 11.37-18.66 23.02-15.92V15.42c-2.48-1.83-8.14-1.35-11.3-.92Z"/></svg>