<svg xmlns="http://www.w3.org/2000/svg" xmlns:xlink="http://www.w3.org/1999/xlink" viewBox="0 0 320 320"><defs><path id="reuse-0" d="M0 0h320v320H0z" style="fill:none"/></defs><defs><clipPath id="a"><use xlink:href="#reuse-0" style="fill:none"/></clipPath><clipPath id="b"><use xlink:href="#reuse-0" style="fill:none"/></clipPath></defs><g style="clip-path:url(#a)"><path d="M160 320c88.37 0 160-71.63 160-160S248.37 0 160 0 0 71.63 0 160s71.63 160 160 160" style="fill:#da471f"/><path d="M279.99 105.65v-7.07c0-1.13.25-1.99.74-2.56.49-.58 1.2-.86 2.12-.84.5 0 .94.11 1.32.34.38.22.67.59.88 1.09.21.51.31 1.22.31 2.13v6.91h3.56v-7.64c.02-1.44-.17-2.61-.57-3.52-.4-.91-.97-1.58-1.73-2.01-.76-.43-1.67-.65-2.73-.65-.86 0-1.63.18-2.31.55-.68.37-1.23.9-1.66 1.61l-.16-1.84h-3.35v13.5h3.56Zm-14.73-9.83c.33-.34.72-.59 1.16-.74.44-.15.85-.23 1.23-.23s.8.08 1.21.24c.41.16.77.41 1.08.75.31.34.49.79.54 1.35h-5.83c.07-.57.27-1.03.61-1.38m5.14 9.73c.83-.29 1.54-.71 2.15-1.26s1.09-1.2 1.47-1.96l-3.19-1.24c-.25.5-.61.91-1.08 1.23-.47.32-1.07.47-1.81.47-.86 0-1.64-.26-2.32-.8-.68-.53-1.07-1.25-1.16-2.15h9.88c0-1.71-.3-3.16-.9-4.36-.6-1.2-1.4-2.11-2.4-2.73-1-.62-2.09-.93-3.28-.93-1.37 0-2.58.3-3.63.9-1.05.6-1.88 1.44-2.48 2.5-.6 1.06-.9 2.29-.9 3.67s.29 2.61.88 3.67a6.461 6.461 0 0 0 2.42 2.5c1.03.6 2.2.9 3.54.9 1.06 0 2.01-.14 2.83-.43m-12.43.14c.53-.21 1.01-.47 1.44-.8l-1.24-2.67c-.23.16-.46.28-.68.37-.22.08-.41.12-.59.12-.49 0-.86-.15-1.11-.45-.25-.3-.38-.73-.38-1.31v-5.75h3.38v-3.02h-3.38v-4.21h-3.56v4.21h-2.19v3.02h2.19v6.53c0 1.37.38 2.42 1.15 3.16.77.74 1.89 1.11 3.39 1.11.52 0 1.05-.1 1.58-.31m-10.85 0c.53-.21 1.01-.47 1.44-.8l-1.24-2.67c-.23.16-.46.28-.68.37-.22.08-.41.12-.59.12-.49 0-.85-.15-1.11-.45-.25-.3-.38-.73-.38-1.31v-5.75h3.38v-3.02h-3.38v-4.21h-3.56v4.21h-2.19v3.02h2.19v6.53c0 1.37.38 2.42 1.15 3.16.77.74 1.89 1.11 3.39 1.11.52 0 1.05-.1 1.58-.31m-18.31-9.84c.33-.34.72-.59 1.16-.74.44-.15.85-.23 1.23-.23s.8.08 1.21.24c.41.16.77.41 1.08.75.31.34.49.79.54 1.35h-5.83c.07-.57.27-1.03.61-1.38m5.15 9.73a6.23 6.23 0 0 0 2.15-1.26c.6-.55 1.09-1.2 1.47-1.96l-3.19-1.24c-.25.5-.61.91-1.08 1.23-.47.32-1.07.47-1.81.47-.86 0-1.64-.26-2.32-.8-.68-.53-1.07-1.25-1.16-2.15h9.88c0-1.71-.3-3.16-.9-4.36s-1.4-2.11-2.4-2.73c-1-.62-2.09-.93-3.28-.93-1.37 0-2.58.3-3.63.9s-1.88 1.44-2.48 2.5c-.6 1.06-.9 2.29-.9 3.67s.29 2.61.88 3.67a6.532 6.532 0 0 0 2.42 2.5c1.03.6 2.2.9 3.54.9 1.06 0 2.01-.14 2.83-.43m-24.24.13 2.92-9.12 2.89 9.12h3.51l4.59-13.5h-3.62l-2.84 8.56-2.78-8.56h-3.51l-2.84 8.69-2.81-8.69h-3.62l4.59 13.5h3.51Zm-9.91-18.9h-3.56v18.9h3.56v-18.9Zm-14.73 9.07c.33-.34.72-.59 1.16-.74.44-.15.85-.23 1.23-.23s.8.08 1.22.24c.41.16.77.41 1.08.75.3.34.49.79.54 1.35h-5.83c.07-.57.27-1.03.61-1.38m5.14 9.73c.83-.29 1.54-.71 2.15-1.26s1.09-1.2 1.47-1.96l-3.19-1.24c-.25.5-.61.91-1.08 1.23-.47.32-1.07.47-1.81.47-.86 0-1.64-.26-2.32-.8-.68-.53-1.07-1.25-1.16-2.15h9.88c0-1.71-.3-3.16-.9-4.36s-1.4-2.11-2.4-2.73c-1-.62-2.09-.93-3.28-.93-1.37 0-2.58.3-3.63.9s-1.88 1.44-2.48 2.5c-.6 1.06-.9 2.29-.9 3.67s.29 2.61.88 3.67a6.461 6.461 0 0 0 2.42 2.5c1.03.6 2.2.9 3.54.9 1.06 0 2.01-.14 2.83-.43M177.7 89.36c.41-.4.61-.89.61-1.45s-.2-1.04-.61-1.44c-.4-.4-.89-.61-1.44-.61s-1.02.2-1.43.61c-.41.4-.62.89-.62 1.44s.21 1.04.62 1.45c.41.4.89.61 1.43.61s1.04-.2 1.44-.61m.34 2.79h-3.56v13.5h3.56v-13.5Zm-8.52 13.31c.82-.34 1.47-.82 1.94-1.44.48-.62.71-1.34.71-2.15 0-.56-.12-1.13-.36-1.71-.24-.59-.63-1.12-1.16-1.59-.53-.48-1.24-.82-2.12-1.04l-1.76-.43c-.47-.11-.83-.24-1.08-.39-.25-.15-.38-.35-.38-.58 0-.36.13-.64.39-.85.26-.21.63-.31 1.12-.31s.97.11 1.46.34c.49.22.79.52.92.88l2.94-1.35c-.2-.6-.56-1.12-1.08-1.57-.52-.45-1.15-.8-1.88-1.05s-1.52-.38-2.36-.38c-1.64 0-2.9.38-3.79 1.13-.89.76-1.34 1.83-1.34 3.21 0 .97.37 1.83 1.12 2.58.75.75 1.77 1.29 3.06 1.63l1.24.33c.45.11.8.24 1.07.39.26.15.39.39.39.71s-.16.57-.49.74c-.32.17-.78.26-1.38.26s-1.15-.16-1.62-.47-.84-.69-1.11-1.12l-3.05 1.4c.32.72.77 1.33 1.35 1.82.58.49 1.24.87 2 1.13.76.26 1.57.39 2.43.39 1.04 0 1.97-.17 2.79-.51m-18.75-2.79c-.36-.23-.54-.54-.54-.93 0-.5.23-.9.68-1.18.45-.28 1.26-.42 2.43-.42h2.02v.06c0 .47-.13.92-.4 1.35-.27.43-.64.78-1.11 1.05-.47.27-.99.4-1.57.4-.65 0-1.15-.11-1.51-.34m3.2 2.83c.62-.32 1.1-.79 1.44-1.4l.05 1.56h3.32l.08-7.48c.02-1.3-.19-2.42-.63-3.36a4.89 4.89 0 0 0-2.02-2.2c-.91-.52-2.05-.78-3.42-.78-1.13 0-2.09.18-2.88.53-.78.35-1.42.8-1.9 1.35s-.86 1.11-1.11 1.69l3.13 1.08c.32-.52.72-.91 1.19-1.16.47-.25.99-.38 1.57-.38.74 0 1.31.22 1.7.66.4.44.66 1.08.78 1.9h-3.19c-1.75 0-3.1.37-4.06 1.09-.96.73-1.45 1.81-1.45 3.25 0 1.31.45 2.33 1.34 3.05.89.72 2.15 1.08 3.77 1.08.9 0 1.66-.16 2.28-.49m-24.24-9.66c.33-.34.72-.59 1.16-.74.44-.15.85-.23 1.23-.23s.8.08 1.21.24c.41.16.77.41 1.08.75.31.34.49.79.54 1.35h-5.83c.07-.57.27-1.03.61-1.38m5.15 9.73a6.23 6.23 0 0 0 2.15-1.26c.6-.55 1.09-1.2 1.47-1.96l-3.19-1.24c-.25.5-.61.91-1.08 1.23-.47.32-1.07.47-1.81.47-.86 0-1.64-.26-2.32-.8-.68-.53-1.07-1.25-1.16-2.15h9.88c0-1.71-.3-3.16-.9-4.36-.6-1.2-1.4-2.11-2.4-2.73-1-.62-2.09-.93-3.28-.93-1.37 0-2.58.3-3.63.9-1.05.6-1.88 1.44-2.48 2.5-.6 1.06-.9 2.29-.9 3.67s.29 2.61.88 3.67a6.461 6.461 0 0 0 2.42 2.5c1.03.6 2.21.9 3.54.9 1.06 0 2.01-.14 2.83-.43m-20.45-3.3c-.49-.32-.89-.77-1.17-1.35-.29-.57-.43-1.23-.43-1.97s.14-1.39.42-1.97c.28-.58.67-1.02 1.16-1.34.5-.32 1.07-.47 1.71-.47.59 0 1.12.15 1.59.45.47.3.84.71 1.11 1.24.27.53.42 1.14.46 1.82v.54c-.04.68-.19 1.29-.46 1.83s-.63.96-1.09 1.26c-.46.3-.99.44-1.58.44-.65 0-1.22-.16-1.71-.49m3.19 3.18c.7-.39 1.28-.93 1.73-1.63l.11 1.89h3.38v-18.9h-3.56v7.21c-.43-.68-.99-1.21-1.69-1.58s-1.48-.55-2.36-.55c-1.24 0-2.32.29-3.23.86-.91.58-1.62 1.39-2.12 2.44s-.76 2.31-.76 3.77.25 2.69.76 3.75c.5 1.06 1.21 1.88 2.12 2.46.91.57 1.98.86 3.23.86.9 0 1.7-.19 2.4-.58m-25.98.26v-7.07c0-1.13.25-1.99.74-2.56.5-.58 1.2-.86 2.12-.84.5 0 .94.11 1.32.34.38.22.67.59.88 1.09.21.51.31 1.22.31 2.13v6.91h3.56v-7.64c.02-1.44-.17-2.61-.57-3.52-.4-.91-.97-1.58-1.73-2.01-.76-.43-1.67-.65-2.73-.65-.86 0-1.63.18-2.31.55-.68.37-1.23.9-1.66 1.61l-.16-1.84h-3.35v13.5h3.56Zm-14.73-9.83c.33-.34.72-.59 1.16-.74.44-.15.85-.23 1.23-.23s.8.08 1.21.24c.41.16.77.41 1.08.75.31.34.49.79.54 1.35H76.3c.07-.57.27-1.03.61-1.38m5.14 9.73a6.23 6.23 0 0 0 2.15-1.26c.6-.55 1.09-1.2 1.47-1.96l-3.19-1.24c-.25.5-.61.91-1.08 1.23-.47.32-1.07.47-1.81.47-.86 0-1.64-.26-2.32-.8-.68-.53-1.07-1.25-1.16-2.15h9.88c0-1.71-.3-3.16-.9-4.36-.6-1.2-1.4-2.11-2.4-2.73-1-.62-2.09-.93-3.28-.93-1.37 0-2.58.3-3.63.9-1.05.6-1.88 1.44-2.48 2.5-.6 1.06-.91 2.29-.91 3.67s.29 2.61.88 3.67a6.461 6.461 0 0 0 2.42 2.5c1.03.6 2.21.9 3.54.9 1.06 0 2.01-.14 2.83-.43M61.6 101.8c-.5-.31-.88-.75-1.15-1.3-.27-.55-.41-1.18-.43-1.88.02-.72.16-1.35.43-1.89s.65-.96 1.13-1.27c.49-.31 1.04-.46 1.67-.46s1.15.15 1.61.46c.46.31.82.73 1.08 1.27.26.54.39 1.17.39 1.89s-.13 1.33-.38 1.88-.61.98-1.07 1.3c-.46.32-.99.47-1.61.47s-1.19-.16-1.69-.47m5.15 8.76a5.762 5.762 0 0 0 2.44-2.47c.58-1.09.86-2.39.86-3.9V92.15h-3.56v2.11c-.45-.77-1.04-1.37-1.76-1.79-.72-.42-1.54-.63-2.46-.63-1.24 0-2.32.28-3.23.85-.91.57-1.62 1.37-2.12 2.4-.5 1.04-.76 2.26-.76 3.66s.25 2.49.76 3.46c.5.97 1.21 1.73 2.12 2.27.91.54 1.98.81 3.23.81.92 0 1.74-.2 2.46-.61s1.31-.96 1.76-1.66v1.3c0 .9-.16 1.64-.47 2.23-.32.59-.75 1.02-1.3 1.3s-1.18.42-1.9.42c-.76 0-1.42-.07-2-.2a8.01 8.01 0 0 1-1.48-.49c-.41-.19-.75-.36-1-.5l-1.4 2.86c.34.23.78.47 1.32.7.54.23 1.21.42 2 .57s1.7.22 2.73.22c1.46 0 2.71-.28 3.77-.84M45.72 95.82c.33-.34.72-.59 1.16-.74s.85-.23 1.23-.23.8.08 1.22.24c.41.16.77.41 1.08.75.31.34.49.79.54 1.35h-5.83c.07-.57.27-1.03.61-1.38m5.14 9.73a6.23 6.23 0 0 0 2.15-1.26c.6-.55 1.09-1.2 1.47-1.96l-3.19-1.24c-.25.5-.61.91-1.08 1.23-.47.32-1.07.47-1.81.47-.86 0-1.64-.26-2.32-.8-.68-.53-1.07-1.25-1.16-2.15h9.88c0-1.71-.3-3.16-.9-4.36s-1.4-2.11-2.4-2.73c-1-.62-2.09-.93-3.28-.93-1.37 0-2.58.3-3.63.9-1.05.6-1.88 1.44-2.48 2.5-.6 1.06-.9 2.29-.9 3.67s.29 2.61.88 3.67a6.461 6.461 0 0 0 2.42 2.5c1.03.6 2.2.9 3.54.9 1.06 0 2.01-.14 2.83-.43m-12.43.14c.53-.21 1.01-.47 1.44-.8l-1.24-2.67c-.23.16-.46.28-.67.37-.22.08-.42.12-.59.12-.49 0-.86-.15-1.11-.45-.25-.3-.38-.73-.38-1.31v-5.75h3.38v-3.02h-3.38v-4.21h-3.56v4.21h-2.19v3.02h2.19v6.53c0 1.37.38 2.42 1.15 3.16.76.74 1.89 1.11 3.39 1.11.52 0 1.05-.1 1.58-.31M233.64 71.82c.33-.34.72-.59 1.16-.74.44-.15.85-.23 1.23-.23s.8.08 1.22.24c.41.16.77.41 1.08.76.31.34.49.79.54 1.35h-5.83c.07-.57.27-1.03.61-1.38m5.13 9.72a6.37 6.37 0 0 0 2.15-1.25c.6-.55 1.09-1.2 1.47-1.96l-3.19-1.24c-.25.51-.61.91-1.08 1.23-.47.32-1.07.47-1.81.47-.86 0-1.64-.27-2.32-.8-.68-.53-1.07-1.25-1.16-2.15h9.88c0-1.71-.3-3.16-.9-4.36-.6-1.2-1.4-2.11-2.4-2.73s-2.09-.93-3.28-.93c-1.37 0-2.58.3-3.63.9-1.05.6-1.88 1.44-2.48 2.5-.6 1.06-.9 2.29-.9 3.67s.29 2.61.88 3.67c.59 1.06 1.39 1.9 2.42 2.5 1.03.6 2.2.9 3.54.9 1.06 0 2.01-.14 2.83-.43m-12.58-16.17c.4-.4.61-.89.61-1.44s-.2-1.04-.61-1.45-.89-.61-1.44-.61-1.02.2-1.43.61c-.41.4-.62.89-.62 1.45s.21 1.04.62 1.44c.41.4.89.61 1.43.61s1.04-.2 1.44-.61m.33 2.79h-3.56v13.5h3.56v-13.5Zm-7.49 13.51c.53-.21 1.01-.47 1.45-.8l-1.24-2.67c-.23.16-.46.28-.67.36-.22.08-.41.12-.59.12-.49 0-.86-.15-1.11-.44-.25-.3-.38-.73-.38-1.31v-5.75h3.38v-3.02h-3.38v-4.21h-3.56v4.21h-2.19v3.02h2.19v6.53c0 1.37.38 2.42 1.15 3.16.76.74 1.89 1.11 3.39 1.11.52 0 1.05-.1 1.58-.31m-18.09-2.99c-.36-.22-.54-.53-.54-.93 0-.5.23-.9.68-1.18.45-.28 1.26-.42 2.43-.42h2.02v.05c0 .47-.14.92-.4 1.35-.27.43-.64.78-1.11 1.05-.47.27-.99.4-1.57.4-.65 0-1.15-.11-1.51-.34m3.2 2.84c.62-.32 1.1-.79 1.44-1.4l.05 1.57H209l.08-7.48c.02-1.3-.19-2.42-.63-3.36a4.808 4.808 0 0 0-2.03-2.2c-.91-.52-2.05-.78-3.42-.78-1.13 0-2.09.18-2.88.53-.78.35-1.42.8-1.9 1.35-.49.55-.86 1.11-1.11 1.69l3.13 1.08c.32-.52.72-.91 1.19-1.16.47-.25.99-.38 1.57-.38.74 0 1.3.22 1.7.66.4.44.66 1.08.78 1.9h-3.19c-1.75 0-3.1.36-4.06 1.09-.96.73-1.44 1.81-1.44 3.25 0 1.31.45 2.33 1.34 3.05.89.72 2.15 1.08 3.77 1.08.9 0 1.66-.16 2.28-.49m-13.32.16v-7.1c0-.7.23-1.28.67-1.73.45-.45 1.04-.77 1.77-.97.73-.2 1.51-.3 2.33-.3v-3.46c-.92 0-1.8.21-2.66.64-.85.42-1.56 1.06-2.12 1.9v-2.48h-3.56v13.5h3.56Zm-7.28.01c.53-.21 1.01-.47 1.44-.8l-1.24-2.67c-.23.16-.46.28-.67.36-.22.08-.41.12-.59.12-.49 0-.85-.15-1.11-.44-.25-.3-.38-.73-.38-1.31v-5.75h3.38v-3.02h-3.38v-4.21h-3.56v4.21h-2.19v3.02h2.19v6.53c0 1.37.38 2.42 1.15 3.16.76.74 1.89 1.11 3.39 1.11.52 0 1.05-.1 1.58-.31m-11.89-.2c.82-.34 1.47-.82 1.94-1.44.48-.62.72-1.34.72-2.15 0-.56-.12-1.13-.37-1.72-.24-.58-.63-1.12-1.16-1.59-.53-.48-1.24-.82-2.12-1.04l-1.75-.43c-.47-.11-.83-.24-1.08-.39-.25-.15-.38-.35-.38-.58 0-.36.13-.64.39-.85.26-.21.64-.31 1.12-.31s.97.11 1.46.34c.49.22.79.52.92.88l2.94-1.35c-.2-.59-.56-1.12-1.08-1.57-.52-.45-1.15-.8-1.88-1.05s-1.52-.38-2.36-.38c-1.64 0-2.9.38-3.79 1.13-.89.76-1.34 1.83-1.34 3.21 0 .97.37 1.83 1.12 2.58.75.75 1.77 1.29 3.07 1.63l1.24.32c.45.11.81.24 1.07.39s.39.39.39.72-.16.57-.49.74c-.32.17-.78.26-1.38.26s-1.15-.16-1.62-.47c-.47-.32-.84-.69-1.11-1.12l-3.05 1.4c.32.72.77 1.33 1.35 1.82.58.5 1.24.87 2 1.13.76.26 1.57.39 2.43.39 1.04 0 1.98-.17 2.79-.51m-19.6.2v-7.07c0-1.13.25-1.99.74-2.56.5-.58 1.2-.85 2.12-.84.5 0 .94.11 1.32.34.38.23.67.59.88 1.09.21.5.31 1.21.31 2.13v6.91h3.56v-7.64c.02-1.44-.17-2.61-.57-3.52-.4-.91-.97-1.58-1.73-2.01-.76-.43-1.67-.65-2.73-.65-.86 0-1.63.18-2.31.55-.67.37-1.23.91-1.66 1.61l-.16-1.83h-3.35v13.5h3.56Zm-14.69-3.46c-.52-.32-.93-.77-1.22-1.34-.29-.57-.43-1.22-.43-1.96s.14-1.39.43-1.96c.29-.57.69-1.01 1.2-1.34.51-.32 1.1-.49 1.77-.49s1.23.16 1.74.49c.51.32.91.77 1.2 1.34.29.57.43 1.22.43 1.96s-.14 1.39-.43 1.96c-.29.57-.68 1.01-1.17 1.34-.5.32-1.08.49-1.74.49s-1.26-.16-1.78-.49m5.42 2.88c1.05-.6 1.88-1.43 2.47-2.5.59-1.06.89-2.28.89-3.67s-.3-2.61-.89-3.67a6.409 6.409 0 0 0-2.48-2.5c-1.06-.6-2.29-.9-3.67-.9s-2.58.3-3.65.9c-1.06.6-1.89 1.44-2.48 2.5-.59 1.06-.89 2.29-.89 3.67s.3 2.61.9 3.67a6.46 6.46 0 0 0 2.5 2.5c1.06.6 2.29.9 3.67.9s2.58-.3 3.63-.9m-29.96.58v-7.07c0-1.13.23-1.99.69-2.56s1.12-.85 1.98-.84c.47 0 .88.11 1.23.34.35.23.62.59.81 1.09.19.5.28 1.21.28 2.13v6.91h3.56v-7.07c0-1.13.23-1.99.7-2.56.47-.58 1.13-.85 2-.84.47 0 .87.11 1.22.34.34.23.61.59.81 1.09s.3 1.21.3 2.13v6.91H130v-7.72c0-2.07-.41-3.61-1.24-4.6s-2.03-1.5-3.62-1.5c-.95 0-1.79.25-2.51.74-.72.49-1.28 1.2-1.67 2.12-.34-.97-.89-1.69-1.63-2.16-.75-.47-1.67-.7-2.77-.7-.79 0-1.51.18-2.16.53s-1.18.87-1.59 1.55l-.16-1.75h-3.35v13.5h3.56Zm-14.73-9.83c.33-.34.72-.59 1.16-.74.44-.15.85-.23 1.23-.23s.8.08 1.22.24c.41.16.77.41 1.08.76.31.34.49.79.54 1.35h-5.83c.07-.57.27-1.03.61-1.38m5.13 9.72a6.37 6.37 0 0 0 2.15-1.25c.6-.55 1.09-1.2 1.47-1.96l-3.19-1.24c-.25.51-.61.91-1.08 1.23-.47.32-1.07.47-1.81.47-.86 0-1.64-.27-2.32-.8-.68-.53-1.07-1.25-1.16-2.15h9.88c0-1.71-.3-3.16-.9-4.36-.6-1.2-1.4-2.11-2.4-2.73s-2.09-.93-3.28-.93c-1.37 0-2.58.3-3.63.9-1.05.6-1.88 1.44-2.48 2.5-.6 1.06-.9 2.29-.9 3.67s.29 2.61.88 3.67c.58 1.06 1.39 1.9 2.42 2.5 1.03.6 2.2.9 3.54.9 1.06 0 2.01-.14 2.83-.43m-20.44-3.31c-.5-.32-.89-.77-1.17-1.35-.29-.58-.43-1.23-.43-1.97s.14-1.4.42-1.97c.28-.58.67-1.02 1.16-1.34.49-.32 1.07-.47 1.71-.47.59 0 1.12.15 1.59.44s.84.71 1.11 1.24c.27.53.42 1.14.46 1.82v.54c-.04.68-.19 1.3-.46 1.84s-.64.96-1.09 1.25-.99.45-1.58.45c-.65 0-1.22-.16-1.71-.49m3.19 3.18c.7-.39 1.28-.93 1.73-1.63l.11 1.89h3.38v-18.9h-3.56v7.21c-.43-.68-1-1.21-1.69-1.58-.69-.37-1.48-.55-2.36-.55-1.24 0-2.32.29-3.23.86-.91.58-1.62 1.39-2.12 2.44s-.76 2.31-.76 3.77.25 2.69.76 3.75c.5 1.06 1.21 1.88 2.12 2.46.91.58 1.99.86 3.23.86.9 0 1.7-.19 2.4-.58M213.18 47.82c.33-.34.72-.59 1.16-.74.44-.15.85-.23 1.23-.23s.8.08 1.21.24c.41.16.77.41 1.08.76.31.34.49.79.54 1.35h-5.83c.07-.58.27-1.04.61-1.38m5.14 9.72a6.23 6.23 0 0 0 2.15-1.26c.6-.55 1.09-1.2 1.47-1.96l-3.19-1.24c-.25.5-.61.91-1.08 1.23-.47.32-1.07.47-1.81.47-.86 0-1.64-.27-2.32-.8-.69-.53-1.07-1.25-1.16-2.15h9.88c0-1.71-.3-3.16-.9-4.36-.6-1.2-1.4-2.11-2.4-2.73-1-.62-2.09-.93-3.28-.93-1.37 0-2.58.3-3.63.9-1.05.6-1.88 1.43-2.48 2.5s-.9 2.29-.9 3.67.29 2.61.88 3.67a6.461 6.461 0 0 0 2.42 2.5c1.03.6 2.2.9 3.54.9 1.06 0 2.01-.14 2.84-.43m-19.23.13v-3.62l1.48-1.62 3.59 5.24h4.18l-5.51-7.8 5.1-5.7h-4.24l-4.62 5.02V38.75h-3.56v18.9h3.56Zm-8.15 4.56c.83-.83 1.24-2.01 1.24-3.54V44.14h-3.56v14.28c0 1.13-.43 1.7-1.3 1.7-.18 0-.39-.04-.63-.12a5.6 5.6 0 0 1-.8-.34l-1.43 2.94c.94.56 1.92.84 2.94.84 1.53 0 2.71-.41 3.54-1.24m.94-20.78c.41-.41.62-.91.62-1.49s-.21-1.07-.62-1.48-.91-.62-1.49-.62-1.07.21-1.49.62-.62.91-.62 1.48.21 1.07.62 1.49.91.62 1.49.62 1.07-.21 1.49-.62m-7.84-.06c.4-.4.61-.89.61-1.45s-.2-1.04-.61-1.44c-.4-.41-.89-.61-1.44-.61s-1.02.2-1.43.61c-.41.4-.62.89-.62 1.44s.21 1.04.62 1.45.89.61 1.43.61 1.04-.2 1.44-.61m.34 2.79h-3.56v13.5h3.56v-13.5Zm-6.86-5.4h-3.56v18.9h3.56v-18.9Zm-14.73 9.07c.33-.34.72-.59 1.16-.74.44-.15.85-.23 1.23-.23s.8.08 1.21.24c.41.16.77.41 1.08.76.31.34.49.79.54 1.35h-5.83c.07-.58.27-1.04.61-1.38m5.15 9.72a6.23 6.23 0 0 0 2.15-1.26c.6-.55 1.09-1.2 1.47-1.96l-3.19-1.24c-.25.5-.61.91-1.08 1.23-.47.32-1.07.47-1.81.47-.86 0-1.64-.27-2.32-.8-.68-.53-1.07-1.25-1.16-2.15h9.88c0-1.71-.3-3.16-.9-4.36-.6-1.2-1.4-2.11-2.4-2.73-1-.62-2.09-.93-3.28-.93-1.37 0-2.58.3-3.63.9-1.05.6-1.88 1.43-2.48 2.5-.6 1.06-.9 2.29-.9 3.67s.29 2.61.88 3.67a6.461 6.461 0 0 0 2.42 2.5c1.03.6 2.21.9 3.54.9 1.06 0 2.01-.14 2.84-.43m-20.46-3.3c-.5-.32-.89-.77-1.18-1.35-.29-.58-.43-1.23-.43-1.97s.14-1.39.42-1.97c.28-.58.67-1.02 1.16-1.34.49-.32 1.07-.47 1.71-.47.59 0 1.12.15 1.59.45.47.3.84.71 1.11 1.24.27.53.42 1.14.46 1.82v.54c-.04.68-.19 1.3-.46 1.84s-.63.96-1.09 1.26c-.46.3-.99.45-1.58.45-.65 0-1.22-.16-1.71-.49m3.2 3.16c.7-.39 1.28-.93 1.73-1.63l.11 1.89h3.38v-18.9h-3.56v7.21a4.42 4.42 0 0 0-1.69-1.58c-.69-.37-1.48-.55-2.36-.55-1.24 0-2.32.29-3.23.86-.91.58-1.62 1.39-2.12 2.44s-.76 2.31-.76 3.77.25 2.69.76 3.75c.5 1.06 1.21 1.88 2.12 2.46.91.58 1.98.86 3.23.86.9 0 1.7-.19 2.4-.58m-19.56.26v-7.07c0-1.13.25-1.99.74-2.57.49-.58 1.2-.85 2.12-.84.5 0 .94.11 1.32.34s.67.59.88 1.09.31 1.22.31 2.13v6.91h3.56V50c.02-1.44-.17-2.61-.57-3.52s-.97-1.58-1.73-2.01-1.66-.65-2.73-.65c-.86 0-1.63.18-2.31.55-.68.37-1.23.9-1.66 1.61l-.16-1.84h-3.35v13.5h3.56Zm-14.5-2.98c-.36-.23-.54-.54-.54-.93 0-.5.22-.89.67-1.17.45-.28 1.26-.42 2.43-.42h2.03v.05c0 .47-.13.92-.4 1.35-.27.43-.64.78-1.11 1.05-.47.27-.99.4-1.57.4-.65 0-1.15-.11-1.51-.34m3.2 2.83c.62-.32 1.1-.79 1.44-1.4l.05 1.57h3.32l.08-7.48c.02-1.3-.19-2.42-.64-3.36a4.808 4.808 0 0 0-2.03-2.2c-.91-.52-2.05-.78-3.41-.78-1.13 0-2.09.18-2.88.53-.78.35-1.42.8-1.9 1.35a6.56 6.56 0 0 0-1.11 1.69l3.13 1.08c.32-.52.72-.91 1.19-1.16.47-.25.99-.38 1.57-.38.74 0 1.31.22 1.7.66.4.44.66 1.08.78 1.9h-3.19c-1.75 0-3.1.36-4.06 1.09-.96.73-1.44 1.81-1.44 3.25 0 1.31.44 2.33 1.34 3.05.89.72 2.15 1.08 3.77 1.08.9 0 1.66-.16 2.28-.49m-8.61.16v-3.38h-8.32V38.75h-3.7v18.9h12.01Z" style="fill:#ffe85e"/></g><path d="m189.05 270.63-9.68-5.72-24.07 23.52 7.2 7.56 26.56-25.36Zm-7.37-5.25h-50.73v10.42h50.73v-10.42Zm7.37 5.25-26.29-25.73-7.19 7.56 23.7 23.61 9.78-5.44Z" style="fill:#ffe85e"/><g style="clip-path:url(#b)"><path d="M269.92 200.84c2.12-.99 3.82-2.5 5.08-4.52 1.26-2.02 1.94-4.55 2.03-7.59v-4.65h-14.99v6.32h6.95c-.15.87-.5 1.63-1.06 2.28-.56.65-1.27 1.15-2.14 1.51-.87.36-1.85.54-2.94.54-1.69 0-3.15-.38-4.4-1.13a7.4 7.4 0 0 1-2.87-3.12c-.66-1.32-.99-2.83-.99-4.52s.35-3.22 1.04-4.52c.69-1.29 1.64-2.31 2.85-3.05 1.2-.74 2.59-1.11 4.15-1.11.78 0 1.56.14 2.32.43.77.29 1.48.68 2.12 1.2.65.51 1.18 1.1 1.6 1.76l6.96-4.11c-.84-1.35-1.87-2.55-3.07-3.59-1.2-1.04-2.63-1.86-4.27-2.46-1.64-.6-3.53-.9-5.67-.9-3.25 0-6.13.7-8.63 2.1-2.5 1.4-4.46 3.33-5.87 5.78-1.42 2.45-2.12 5.28-2.12 8.47s.71 6.01 2.12 8.47c1.41 2.45 3.37 4.38 5.87 5.78s5.37 2.1 8.63 2.1c2.74 0 5.17-.5 7.29-1.49m-39.67-20.21 3.16 8.76h-6.37l3.21-8.76Zm-7.76 21.18 1.85-5.06h11.79l1.85 5.06h8.85l-12.1-31.61h-8.99l-12.1 31.61h8.85Zm-26.06-21.18 3.16 8.76h-6.37l3.21-8.76Zm-7.77 21.18 1.85-5.06h11.79l1.85 5.06h8.85l-12.1-31.61h-8.99l-12.1 31.61h8.85Zm-31.88 0v-12.24h11.65v12.24h8.35v-31.61h-8.35v11.7h-11.65v-11.74h-8.35v31.66h8.35Zm-45.29 0v-18.02l12.78 18.02h8.35v-31.61h-8.35v17.39l-12.33-17.39h-8.81v31.61h8.36Zm-13.32 0v-7.68H85.02v-4.43h10.39v-7.45H85.02v-4.38h12.83v-7.68H76.67v31.61h21.5Zm-45.25-23.71h2.21c1.32 0 2.54.2 3.66.59 1.11.39 2.08.93 2.89 1.63.81.69 1.44 1.52 1.9 2.48.45.96.68 2.03.68 3.21s-.23 2.24-.68 3.21a7.19 7.19 0 0 1-1.9 2.48c-.81.69-1.78 1.24-2.89 1.63-1.11.39-2.33.59-3.66.59h-2.21v-15.81Zm2.21 23.71c3.46 0 6.53-.68 9.19-2.03 2.66-1.36 4.75-3.22 6.25-5.6 1.51-2.38 2.26-5.1 2.26-8.17s-.75-5.83-2.26-8.2c-1.5-2.36-3.59-4.22-6.25-5.58-2.66-1.35-5.73-2.03-9.19-2.03H44.55v31.61h10.57ZM288.68 140.17h4.29c1.14 0 2.07.29 2.78.88.71.59 1.06 1.33 1.06 2.24 0 .6-.17 1.15-.5 1.63-.33.48-.78.86-1.35 1.13-.57.27-1.23.41-1.99.41h-4.29v-6.28Zm0 23.98v-10.02h2.93l5.69 10.02h9.57l-6.95-11.52c1.75-.9 3.13-2.17 4.15-3.79 1.02-1.63 1.54-3.48 1.54-5.55s-.52-3.97-1.56-5.58c-1.04-1.61-2.48-2.87-4.31-3.79-1.84-.92-3.94-1.38-6.32-1.38h-13.1v31.61h8.36Zm-13.32 0v-7.68h-13.14v-4.43h10.39v-7.45h-10.39v-4.38h12.83v-7.68h-21.18v31.61h21.5ZM234.26 139h2.66c.96 0 1.75.24 2.35.72.6.48.9 1.16.9 2.03s-.3 1.55-.9 2.03c-.6.48-1.38.72-2.35.72h-2.66v-5.51Zm0 12.15h3.84c.99 0 1.78.25 2.37.74.59.5.88 1.17.88 2.01s-.29 1.54-.88 2.08c-.59.54-1.38.81-2.37.81h-3.84v-5.64Zm4.84 13c2.14 0 4.03-.36 5.67-1.08 1.64-.72 2.93-1.78 3.86-3.18.93-1.4 1.4-3.11 1.4-5.12 0-1.78-.38-3.27-1.13-4.49-.75-1.22-1.82-2.21-3.21-2.96.96-.78 1.72-1.64 2.26-2.58.54-.93.81-1.88.81-2.84 0-2.14-.48-3.9-1.45-5.28-.96-1.38-2.29-2.41-3.97-3.07-1.69-.66-3.63-.99-5.83-.99h-11.38v31.61h12.96Zm-43.81 0v-18.7l8.58 12.37 8.49-12.37v18.7h8.35v-31.61h-9.26l-7.63 11.29-7.63-11.29h-9.26v31.61h8.35Zm-13.32 0v-7.68h-13.14v-4.43h10.39v-7.45h-10.39v-4.38h12.82v-7.68h-21.18v31.61h21.5Zm-33.87 0v-23.93h8.9v-7.68h-26.19v7.68h8.94v23.93h8.35Zm-35.22-23.98h4.52c1.14 0 2.07.32 2.78.95.71.63 1.06 1.45 1.06 2.44s-.35 1.85-1.06 2.48c-.71.63-1.63.95-2.78.95h-4.52v-6.82Zm0 23.98v-9.48h4.74c2.38 0 4.49-.47 6.32-1.42 1.84-.95 3.27-2.26 4.31-3.93 1.04-1.67 1.56-3.59 1.56-5.76s-.52-4.08-1.56-5.74c-1.04-1.65-2.48-2.95-4.31-3.88-1.84-.93-3.94-1.4-6.32-1.4h-13.1v31.61h8.36Zm-13.33 0v-7.68H86.41v-4.43H96.8v-7.45H86.41v-4.38h12.82v-7.68H78.05v31.61h21.5Zm-31.16-.58c1.78-.75 3.14-1.85 4.09-3.3.95-1.44 1.42-3.21 1.42-5.28 0-2.26-.68-4.27-2.03-6.03-1.36-1.76-3.24-2.94-5.64-3.54l-4.79-1.22c-.84-.21-1.49-.52-1.94-.93-.45-.41-.68-.88-.68-1.42 0-.87.28-1.53.83-1.99.56-.45 1.35-.68 2.37-.68s1.89.3 2.51.9c.62.6 1 1.2 1.15 1.81l8.26-2.39c-.72-1.78-1.63-3.21-2.73-4.31-1.1-1.1-2.41-1.9-3.93-2.42-1.52-.51-3.27-.77-5.26-.77-3.73 0-6.63.87-8.69 2.6-2.06 1.73-3.09 4.15-3.09 7.25 0 1.57.31 2.98.93 4.25a8.952 8.952 0 0 0 2.67 3.21c1.16.87 2.55 1.52 4.18 1.94l4.74 1.22c.81.21 1.41.55 1.78 1.02.38.47.56.96.56 1.47 0 .78-.32 1.42-.97 1.9-.65.48-1.39.71-2.24.68-1.06-.06-1.91-.35-2.57-.88-.66-.53-1.13-1.17-1.4-1.92l-8.31 2.3c.15 1.02.6 1.99 1.35 2.91.75.92 1.71 1.74 2.87 2.46 1.16.72 2.44 1.29 3.86 1.69 1.41.41 2.86.61 4.33.61 2.47 0 4.59-.38 6.37-1.13m-42.44.57 10.57-25.74v-5.87h-23.4v7.68h14.09l-10.52 23.93h9.26Z" style="fill:#ffe85e"/></g></svg>