<svg xmlns="http://www.w3.org/2000/svg" viewBox="0 0 320 320"><path d="M160 320c88.37 0 160-71.63 160-160S248.37 0 160 0 0 71.63 0 160s71.63 160 160 160" style="fill:#bc2911"/><path d="M135.5 115.65c-.6-1.2-1.4-2.11-2.4-2.73-1-.62-2.09-.93-3.28-.93-1.37 0-2.58.3-3.63.9-1.05.6-1.88 1.44-2.48 2.5-.6 1.06-.9 2.29-.9 3.67s.29 2.61.88 3.67a6.461 6.461 0 0 0 2.42 2.5c1.03.6 2.2.9 3.54.9 1.06 0 2.01-.14 2.84-.43a6.23 6.23 0 0 0 2.15-1.26c.6-.55 1.09-1.2 1.47-1.96l-3.19-1.24c-.25.5-.61.91-1.08 1.23-.47.32-1.07.47-1.81.47-.86 0-1.64-.27-2.32-.8-.68-.53-1.07-1.25-1.16-2.15h9.88c0-1.71-.3-3.16-.91-4.36Zm-8.79 1.72c.07-.58.27-1.03.61-1.38.33-.34.72-.59 1.16-.74.44-.15.85-.23 1.23-.23s.8.08 1.22.24c.41.16.77.41 1.08.76.31.34.49.79.54 1.35h-5.83ZM162.24 112.32l-2.83 8.56-2.79-8.56h-3.51l-2.83 8.69-2.81-8.69h-3.62l4.59 13.5h3.51l2.92-9.13 2.89 9.13h3.51l4.59-13.5h-3.62zM116.67 112.32h3.56v13.5h-3.56zM138.48 106.92h3.56v18.9h-3.56zM110.29 122.73c-.32.17-.78.26-1.38.26s-1.15-.16-1.62-.47c-.47-.31-.84-.69-1.11-1.12l-3.05 1.4c.32.72.77 1.33 1.35 1.82.58.49 1.24.87 2 1.13.76.26 1.57.39 2.43.39 1.04 0 1.97-.17 2.79-.51.82-.34 1.47-.82 1.94-1.44.48-.62.71-1.34.71-2.15 0-.56-.12-1.13-.36-1.71-.24-.59-.63-1.12-1.16-1.59-.53-.48-1.24-.82-2.12-1.04l-1.76-.43c-.47-.11-.83-.24-1.08-.39s-.38-.35-.38-.58c0-.36.13-.64.39-.85.26-.21.63-.31 1.12-.31s.97.11 1.46.34c.49.23.79.52.92.88l2.94-1.35c-.2-.59-.56-1.12-1.08-1.57-.52-.45-1.15-.8-1.88-1.05s-1.52-.38-2.36-.38c-1.64 0-2.9.38-3.79 1.13-.89.76-1.34 1.83-1.34 3.21 0 .97.37 1.83 1.12 2.58.75.75 1.77 1.29 3.06 1.63l1.24.32c.45.11.81.24 1.07.39.26.15.39.39.39.71s-.16.57-.49.74ZM119.89 106.63c-.4-.4-.89-.61-1.44-.61s-1.02.2-1.43.61c-.41.4-.62.89-.62 1.44s.21 1.04.62 1.44c.41.41.89.61 1.43.61s1.04-.2 1.44-.61c.41-.4.61-.89.61-1.44s-.2-1.04-.61-1.44ZM183.22 108.11v4.21h-2.19v3.02h2.19v6.53c0 1.37.38 2.42 1.15 3.16.76.74 1.89 1.11 3.39 1.11.52 0 1.05-.1 1.58-.31s1.01-.47 1.45-.8l-1.24-2.67c-.23.16-.46.28-.67.36-.22.08-.41.12-.59.12-.49 0-.86-.15-1.11-.45-.25-.3-.38-.73-.38-1.31v-5.75h3.38v-3.02h-3.38v-4.21h-3.56ZM213.03 121.25c-.25.5-.61.91-1.08 1.23-.47.32-1.07.47-1.81.47-.86 0-1.64-.27-2.32-.8-.68-.53-1.07-1.25-1.16-2.15h9.88c0-1.71-.3-3.16-.9-4.36-.6-1.2-1.4-2.11-2.4-2.73-1-.62-2.09-.93-3.28-.93-1.37 0-2.58.3-3.63.9-1.05.6-1.88 1.44-2.48 2.5-.6 1.06-.9 2.29-.9 3.67s.29 2.61.88 3.67a6.461 6.461 0 0 0 2.42 2.5c1.03.6 2.2.9 3.54.9 1.06 0 2.01-.14 2.84-.43a6.23 6.23 0 0 0 2.15-1.26c.6-.55 1.09-1.2 1.47-1.96l-3.19-1.24Zm-5.58-5.26c.33-.34.72-.59 1.16-.74.44-.15.85-.23 1.23-.23s.8.08 1.22.24c.41.16.77.41 1.08.76.3.34.49.79.54 1.35h-5.83c.07-.58.27-1.03.61-1.38ZM195.22 125.03c.76.74 1.89 1.11 3.39 1.11.52 0 1.05-.1 1.58-.31s1.01-.47 1.44-.8l-1.24-2.67c-.23.16-.46.28-.67.36-.22.08-.41.12-.59.12-.49 0-.86-.15-1.11-.45-.25-.3-.38-.73-.38-1.31v-5.75h3.38v-3.02h-3.38v-4.21h-3.56v4.21h-2.19v3.02h2.19v6.53c0 1.37.38 2.42 1.15 3.16ZM179.21 115.65c-.6-1.2-1.4-2.11-2.4-2.73-1-.62-2.09-.93-3.28-.93-1.37 0-2.58.3-3.63.9-1.05.6-1.88 1.44-2.48 2.5-.6 1.06-.9 2.29-.9 3.67s.29 2.61.88 3.67a6.532 6.532 0 0 0 2.42 2.5c1.03.6 2.21.9 3.54.9 1.06 0 2.01-.14 2.83-.43a6.23 6.23 0 0 0 2.15-1.26c.6-.55 1.09-1.2 1.47-1.96l-3.19-1.24c-.25.5-.61.91-1.08 1.23-.47.32-1.07.47-1.81.47-.86 0-1.64-.27-2.32-.8s-1.07-1.25-1.16-2.15h9.88c0-1.71-.3-3.16-.91-4.36Zm-8.79 1.72c.07-.58.27-1.03.61-1.38.33-.34.72-.59 1.16-.74.44-.15.85-.23 1.23-.23s.8.08 1.21.24c.41.16.77.41 1.08.76.31.34.49.79.54 1.35h-5.83ZM222.18 118.74c0-1.13.25-1.99.74-2.57.49-.58 1.2-.85 2.12-.84.5 0 .95.11 1.32.34.38.23.67.59.88 1.09.21.5.31 1.22.31 2.13v6.91h3.56v-7.64c.02-1.44-.17-2.61-.57-3.52-.4-.91-.97-1.58-1.73-2.01-.76-.43-1.66-.65-2.73-.65-.86 0-1.63.18-2.31.55s-1.23.9-1.66 1.61l-.16-1.84h-3.35v13.5h3.56v-7.07ZM101.03 118.34c.02-1.3-.19-2.42-.64-3.36a4.808 4.808 0 0 0-2.03-2.2c-.91-.52-2.05-.78-3.41-.78-1.13 0-2.09.18-2.88.53-.78.35-1.42.8-1.9 1.35-.49.55-.86 1.11-1.11 1.69l3.13 1.08c.32-.52.72-.91 1.19-1.16.47-.25.99-.38 1.57-.38.74 0 1.3.22 1.7.66.4.44.66 1.07.78 1.9h-3.19c-1.75 0-3.1.36-4.06 1.09-.96.73-1.44 1.81-1.44 3.25 0 1.31.45 2.33 1.34 3.05.89.72 2.15 1.08 3.77 1.08.9 0 1.66-.16 2.28-.49.62-.32 1.1-.79 1.45-1.4l.05 1.57h3.32l.08-7.48Zm-3.51 2.02c0 .47-.14.92-.41 1.35-.27.43-.64.78-1.11 1.05-.47.27-.99.41-1.57.41-.65 0-1.15-.11-1.51-.34-.36-.22-.54-.54-.54-.93 0-.5.22-.89.67-1.17.45-.28 1.26-.42 2.43-.42h2.03v.05ZM157.07 94.92c.75.75 1.77 1.29 3.07 1.63l1.24.32c.45.11.8.24 1.07.39.26.15.39.39.39.71s-.16.57-.49.74c-.32.17-.78.26-1.38.26s-1.15-.16-1.62-.47c-.47-.31-.84-.69-1.11-1.12l-3.05 1.4c.32.72.77 1.33 1.35 1.82s1.24.87 2 1.13c.76.26 1.57.39 2.43.39 1.04 0 1.97-.17 2.79-.51.82-.34 1.47-.82 1.94-1.44.48-.62.72-1.34.72-2.15 0-.56-.12-1.13-.36-1.71-.24-.59-.63-1.12-1.16-1.59-.53-.48-1.24-.82-2.12-1.04l-1.76-.43c-.47-.11-.83-.24-1.08-.39-.25-.15-.38-.35-.38-.58 0-.36.13-.64.39-.85.26-.21.63-.31 1.12-.31s.97.11 1.46.34c.49.23.79.52.92.88l2.94-1.35c-.2-.59-.56-1.12-1.08-1.57-.52-.45-1.15-.8-1.88-1.05s-1.52-.38-2.36-.38c-1.64 0-2.9.38-3.79 1.13-.89.76-1.34 1.83-1.34 3.21 0 .97.37 1.83 1.12 2.58ZM191.33 94.76c-.96.73-1.44 1.81-1.44 3.25 0 1.31.45 2.33 1.34 3.05.89.72 2.15 1.08 3.77 1.08.9 0 1.66-.16 2.28-.49.62-.32 1.1-.79 1.45-1.4l.05 1.57h3.32l.08-7.48c.02-1.3-.19-2.42-.64-3.36a4.84 4.84 0 0 0-2.02-2.2c-.91-.52-2.05-.78-3.42-.78-1.13 0-2.09.18-2.88.53-.78.35-1.42.8-1.9 1.35-.49.55-.86 1.11-1.11 1.69l3.13 1.08c.32-.52.72-.91 1.19-1.16.47-.25.99-.38 1.57-.38.74 0 1.3.22 1.7.66.39.44.66 1.08.78 1.9h-3.19c-1.75 0-3.1.36-4.06 1.09Zm7.33 1.55v.05c0 .47-.13.92-.4 1.35-.27.43-.64.78-1.11 1.05-.47.27-.99.4-1.57.4-.65 0-1.15-.11-1.51-.34-.36-.22-.54-.54-.54-.93 0-.5.22-.9.68-1.17.45-.28 1.26-.42 2.43-.42h2.02ZM167.24 88.32l4.59 13.5h3.51l2.91-9.13 2.89 9.13h3.51l4.59-13.5h-3.62l-2.83 8.56-2.78-8.56h-3.51l-2.84 8.69-2.81-8.69h-3.61zM140.59 88.32v13.5h3.56v-7.07c0-1.13.25-1.99.74-2.57.49-.58 1.2-.85 2.12-.84.5 0 .95.11 1.32.34.38.23.67.59.88 1.09.21.5.31 1.22.31 2.13v6.91h3.56v-7.64c.02-1.44-.17-2.61-.57-3.52-.4-.91-.97-1.58-1.73-2.01s-1.67-.65-2.73-.65c-.86 0-1.63.18-2.31.55-.67.37-1.23.9-1.66 1.61l-.16-1.84h-3.35ZM138.18 98.5l-3.19-1.24c-.25.5-.61.91-1.08 1.23-.47.32-1.07.47-1.81.47-.86 0-1.64-.26-2.32-.8-.68-.53-1.07-1.25-1.16-2.15h9.88c0-1.71-.3-3.16-.9-4.36-.6-1.2-1.4-2.11-2.4-2.73-1-.62-2.09-.93-3.28-.93-1.37 0-2.58.3-3.63.9-1.05.6-1.88 1.44-2.48 2.5-.6 1.06-.9 2.29-.9 3.67s.29 2.61.88 3.67c.59 1.06 1.39 1.9 2.42 2.5 1.03.6 2.21.91 3.54.91 1.06 0 2.01-.14 2.84-.43a6.23 6.23 0 0 0 2.15-1.26c.6-.55 1.09-1.2 1.47-1.96Zm-8.76-6.51c.33-.34.72-.59 1.16-.74.44-.15.85-.23 1.23-.23s.8.08 1.22.24c.41.16.77.41 1.08.76.31.34.49.79.54 1.35h-5.83c.07-.58.28-1.03.61-1.38ZM245.91 88.32h3.56v13.5h-3.56zM112.12 88.7c-.75-.47-1.67-.7-2.77-.7-.79 0-1.51.18-2.16.53-.65.35-1.18.87-1.59 1.55l-.16-1.76h-3.35v13.5h3.56v-7.07c0-1.13.23-1.99.69-2.57s1.12-.85 1.98-.84c.47 0 .88.11 1.23.34.35.23.62.59.81 1.09.19.5.28 1.22.28 2.13v6.91h3.56v-7.07c0-1.13.23-1.99.7-2.57.47-.58 1.13-.85 2-.84.47 0 .87.11 1.22.34.34.23.61.59.81 1.09.2.5.3 1.22.3 2.13v6.91h3.56v-7.72c0-2.07-.42-3.6-1.24-4.6-.83-1-2.04-1.5-3.62-1.5-.95 0-1.79.25-2.51.74-.72.49-1.28 1.2-1.67 2.12-.34-.97-.89-1.69-1.63-2.16ZM247.7 86.13c.56 0 1.04-.2 1.44-.61.4-.4.61-.89.61-1.44s-.2-1.04-.61-1.45-.89-.61-1.44-.61-1.02.2-1.43.61c-.42.4-.62.89-.62 1.45s.21 1.04.62 1.44c.41.41.89.61 1.43.61ZM271.56 101.24c1.03.6 2.21.91 3.54.91 1.06 0 2.01-.14 2.84-.43a6.23 6.23 0 0 0 2.15-1.26c.6-.55 1.09-1.2 1.47-1.96l-3.19-1.24c-.25.5-.61.91-1.08 1.23-.47.32-1.07.47-1.81.47-.86 0-1.64-.26-2.32-.8-.68-.53-1.07-1.25-1.16-2.15h9.88c0-1.71-.3-3.16-.9-4.36-.6-1.2-1.4-2.11-2.4-2.73-1-.62-2.09-.93-3.28-.93-1.37 0-2.58.3-3.63.9-1.05.6-1.88 1.44-2.48 2.5-.6 1.06-.91 2.29-.91 3.67s.29 2.61.88 3.67c.59 1.06 1.39 1.9 2.42 2.5Zm1.23-9.25c.33-.34.72-.59 1.16-.74.44-.15.85-.23 1.23-.23s.8.08 1.22.24c.41.16.77.41 1.08.76.31.34.49.79.54 1.35h-5.83c.07-.58.28-1.03.61-1.38ZM265.06 104.26c.58-1.09.86-2.39.86-3.9V88.32h-3.56v2.11c-.45-.77-1.03-1.37-1.75-1.79-.72-.42-1.54-.64-2.46-.64-1.24 0-2.32.28-3.23.85-.91.57-1.62 1.37-2.12 2.4-.5 1.04-.76 2.25-.76 3.66s.25 2.48.76 3.46c.5.97 1.21 1.73 2.12 2.27.91.54 1.98.81 3.23.81.92 0 1.74-.2 2.46-.61s1.3-.96 1.75-1.66v1.3c0 .9-.16 1.64-.47 2.23-.32.58-.75 1.02-1.3 1.3s-1.18.42-1.9.42c-.76 0-1.42-.07-2-.2-.58-.13-1.07-.3-1.48-.48-.41-.19-.75-.36-1-.5l-1.4 2.86c.34.23.78.47 1.32.7.54.23 1.21.42 2 .57.79.14 1.7.22 2.73.22 1.46 0 2.71-.28 3.77-.84a5.762 5.762 0 0 0 2.44-2.47Zm-3.22-7.59c-.25.55-.61.98-1.07 1.3-.46.32-.99.47-1.61.47s-1.19-.16-1.69-.47c-.49-.31-.88-.75-1.15-1.3-.27-.55-.41-1.17-.43-1.88.02-.72.16-1.35.43-1.89.27-.54.65-.96 1.13-1.27.49-.31 1.04-.46 1.67-.46s1.15.15 1.61.46c.46.31.82.73 1.08 1.27.26.54.39 1.17.39 1.89s-.13 1.33-.38 1.88ZM222.96 94.72c0-.7.23-1.28.67-1.73.45-.45 1.04-.77 1.77-.97s1.51-.3 2.34-.3v-3.46c-.92 0-1.8.21-2.66.63-.85.42-1.56 1.06-2.12 1.9v-2.48h-3.56v13.5h3.56v-7.1ZM231.78 101.28c.91.58 1.98.86 3.23.86.9 0 1.7-.19 2.4-.58.7-.39 1.28-.93 1.73-1.63l.11 1.89h3.38v-18.9h-3.56v7.21a4.42 4.42 0 0 0-1.69-1.58c-.69-.37-1.48-.55-2.36-.55-1.24 0-2.32.29-3.23.86s-1.61 1.39-2.12 2.44c-.5 1.05-.76 2.31-.76 3.77s.25 2.69.76 3.75c.5 1.06 1.21 1.88 2.12 2.46Zm1.24-8.18c.28-.58.67-1.02 1.16-1.34.49-.31 1.07-.47 1.71-.47.59 0 1.12.15 1.59.45.47.3.84.71 1.11 1.24.27.53.42 1.14.46 1.82v.54c-.04.68-.19 1.3-.46 1.84s-.64.96-1.09 1.26-.98.45-1.58.45c-.65 0-1.22-.16-1.72-.49-.49-.32-.89-.77-1.17-1.35-.29-.58-.43-1.23-.43-1.97s.14-1.39.42-1.97ZM66.5 98.74c.59-1.06.89-2.29.89-3.67s-.3-2.61-.89-3.67a6.475 6.475 0 0 0-2.48-2.5c-1.06-.6-2.29-.9-3.67-.9s-2.58.3-3.64.9c-1.06.6-1.89 1.44-2.48 2.5-.59 1.06-.89 2.29-.89 3.67s.3 2.61.9 3.67a6.46 6.46 0 0 0 2.5 2.5c1.06.6 2.29.91 3.67.91s2.58-.3 3.63-.91c1.05-.6 1.88-1.43 2.47-2.5Zm-3.19-1.71c-.29.57-.68 1.01-1.17 1.34-.5.32-1.08.49-1.74.49s-1.26-.16-1.78-.49c-.52-.32-.93-.77-1.22-1.34-.29-.57-.43-1.22-.43-1.96s.14-1.39.43-1.96c.29-.57.69-1.01 1.2-1.34.51-.32 1.1-.49 1.77-.49s1.23.16 1.74.49c.51.32.91.77 1.2 1.34.29.57.43 1.22.43 1.96s-.14 1.39-.43 1.96ZM205.72 94.76c-.96.73-1.44 1.81-1.44 3.25 0 1.31.45 2.33 1.34 3.05.89.72 2.15 1.08 3.77 1.08.9 0 1.66-.16 2.28-.49.62-.32 1.1-.79 1.44-1.4l.05 1.57h3.32l.08-7.48c.02-1.3-.19-2.42-.63-3.36a4.84 4.84 0 0 0-2.02-2.2c-.91-.52-2.05-.78-3.42-.78-1.13 0-2.09.18-2.88.53-.78.35-1.42.8-1.9 1.35s-.85 1.11-1.11 1.69l3.13 1.08c.32-.52.72-.91 1.19-1.16.47-.25.99-.38 1.57-.38.74 0 1.3.22 1.7.66.4.44.66 1.08.78 1.9h-3.19c-1.75 0-3.1.36-4.06 1.09Zm7.33 1.55v.05c0 .47-.14.92-.4 1.35-.27.43-.64.78-1.11 1.05-.47.27-.99.4-1.57.4-.65 0-1.15-.11-1.51-.34-.36-.22-.54-.54-.54-.93 0-.5.23-.9.67-1.17.45-.28 1.26-.42 2.43-.42h2.02ZM85.43 88.32v13.5h3.56v-7.1c0-.7.22-1.28.67-1.73s1.04-.77 1.77-.97 1.51-.3 2.34-.3v-3.46c-.92 0-1.8.21-2.66.63-.86.42-1.56 1.06-2.12 1.9v-2.48h-3.56ZM47.22 101.82l5.54-13.5h-3.67l-3.65 9.42-3.64-9.42h-3.68l5.54 13.5h3.56zM72.41 101.24c1.06.6 2.29.91 3.67.91s2.58-.3 3.63-.91c1.05-.6 1.88-1.43 2.47-2.5.59-1.06.89-2.29.89-3.67s-.3-2.61-.89-3.67a6.475 6.475 0 0 0-2.48-2.5c-1.06-.6-2.29-.9-3.67-.9s-2.58.3-3.65.9c-1.06.6-1.89 1.44-2.48 2.5-.59 1.06-.89 2.29-.89 3.67s.3 2.61.91 3.67a6.46 6.46 0 0 0 2.5 2.5Zm.68-8.13c.29-.57.69-1.01 1.2-1.34.51-.32 1.1-.49 1.77-.49s1.23.16 1.74.49c.51.32.91.77 1.2 1.34.29.57.43 1.22.43 1.96s-.14 1.39-.43 1.96c-.29.57-.68 1.01-1.17 1.34-.5.32-1.08.49-1.74.49s-1.26-.16-1.78-.49c-.52-.32-.93-.77-1.22-1.34-.29-.57-.43-1.22-.43-1.96s.14-1.39.43-1.96ZM207.07 77.24c1.03.6 2.2.91 3.54.91 1.06 0 2.01-.14 2.84-.43a6.23 6.23 0 0 0 2.15-1.26c.6-.55 1.09-1.2 1.47-1.96l-3.19-1.24c-.25.5-.61.91-1.08 1.23-.47.32-1.07.47-1.81.47-.86 0-1.64-.26-2.32-.8-.68-.53-1.07-1.25-1.16-2.15h9.88c0-1.71-.3-3.16-.9-4.36-.6-1.2-1.4-2.11-2.4-2.73-1-.62-2.09-.93-3.28-.93-1.37 0-2.58.3-3.63.9-1.05.6-1.88 1.44-2.48 2.5-.6 1.06-.9 2.29-.9 3.67s.29 2.61.88 3.67c.58 1.06 1.39 1.9 2.42 2.5Zm1.23-9.25c.33-.34.72-.59 1.16-.74.44-.15.85-.23 1.23-.23s.8.08 1.22.24c.41.16.77.41 1.08.76.31.34.49.79.54 1.35h-5.83c.07-.58.27-1.03.61-1.38ZM194.92 73.88c0 1.37.38 2.42 1.15 3.16.76.74 1.89 1.11 3.39 1.11.52 0 1.05-.1 1.58-.31s1.01-.47 1.45-.8l-1.24-2.67c-.23.16-.46.28-.67.36-.22.08-.41.12-.59.12-.49 0-.86-.15-1.11-.45-.25-.3-.38-.73-.38-1.31v-5.75h3.38v-3.02h-3.38v-4.21h-3.56v4.21h-2.19v3.02h2.19v6.53ZM233.26 74.2l1.49-1.62 3.59 5.24h4.18l-5.5-7.81 5.1-5.69h-4.24l-4.62 5.02V58.92h-3.56v18.9h3.56V74.2zM223.03 70.72c0-.7.22-1.28.67-1.73s1.04-.77 1.77-.97 1.51-.3 2.34-.3v-3.46c-.92 0-1.8.21-2.66.63-.85.42-1.56 1.06-2.12 1.9v-2.48h-3.56v13.5h3.56v-7.1ZM162.5 77.24c1.02.6 2.2.91 3.54.91 1.06 0 2.01-.14 2.84-.43a6.23 6.23 0 0 0 2.15-1.26c.6-.55 1.09-1.2 1.47-1.96l-3.19-1.24c-.25.5-.61.91-1.08 1.23-.47.32-1.07.47-1.81.47-.86 0-1.64-.26-2.32-.8s-1.07-1.25-1.16-2.15h9.88c0-1.71-.3-3.16-.9-4.36-.6-1.2-1.4-2.11-2.4-2.73-1-.62-2.09-.93-3.28-.93-1.37 0-2.58.3-3.63.9-1.05.6-1.88 1.44-2.48 2.5-.6 1.06-.9 2.29-.9 3.67s.29 2.61.88 3.67c.58 1.06 1.39 1.9 2.42 2.5Zm1.23-9.25c.33-.34.72-.59 1.16-.74.44-.15.85-.23 1.23-.23.4 0 .8.08 1.21.24.41.16.77.41 1.08.76.3.34.49.79.54 1.35h-5.83c.07-.58.27-1.03.61-1.38ZM155.34 82.38c.83-.83 1.24-2.01 1.24-3.54V64.31h-3.56v14.28c0 1.13-.43 1.7-1.3 1.7-.18 0-.39-.04-.64-.12a5.6 5.6 0 0 1-.8-.34l-1.43 2.94c.94.56 1.92.84 2.94.84 1.53 0 2.71-.41 3.54-1.24ZM134.69 74.2l1.48-1.62 3.59 5.24h4.19l-5.51-7.81 5.1-5.69h-4.24l-4.61 5.02V58.92h-3.57v18.9h3.57V74.2zM154.8 62.21c.58 0 1.07-.21 1.48-.62s.62-.91.62-1.48-.21-1.07-.62-1.48-.91-.62-1.48-.62-1.07.21-1.48.62-.62.91-.62 1.48.21 1.07.62 1.48.91.62 1.48.62ZM103.06 70.76c-.96.73-1.44 1.81-1.44 3.25 0 1.31.45 2.33 1.34 3.05.89.72 2.15 1.08 3.77 1.08.9 0 1.66-.16 2.28-.49.62-.32 1.1-.79 1.45-1.4l.05 1.57h3.32l.08-7.48c.02-1.3-.19-2.42-.64-3.36a4.808 4.808 0 0 0-2.03-2.2c-.91-.52-2.05-.78-3.41-.78-1.13 0-2.09.18-2.88.53-.78.35-1.42.8-1.9 1.35-.49.55-.86 1.11-1.11 1.69l3.13 1.08c.32-.52.72-.91 1.19-1.16.47-.25.99-.38 1.57-.38.74 0 1.3.22 1.7.66.4.44.66 1.08.78 1.9h-3.19c-1.75 0-3.1.36-4.06 1.09Zm7.33 1.55v.05c0 .47-.14.92-.41 1.35-.27.43-.64.78-1.11 1.05-.47.27-.99.4-1.57.4-.65 0-1.15-.11-1.51-.34-.36-.22-.54-.54-.54-.93 0-.5.22-.9.67-1.17s1.26-.42 2.43-.42h2.03ZM187.74 74.73c-.32.17-.78.26-1.38.26s-1.15-.16-1.62-.47c-.47-.31-.84-.69-1.11-1.12l-3.05 1.4c.32.72.77 1.33 1.35 1.82s1.24.87 2 1.13c.76.26 1.57.39 2.43.39 1.04 0 1.97-.17 2.79-.51.82-.34 1.47-.82 1.94-1.44.48-.62.72-1.34.72-2.15 0-.56-.12-1.13-.36-1.71-.24-.59-.63-1.12-1.16-1.59s-1.24-.82-2.12-1.04l-1.76-.43c-.47-.11-.83-.24-1.08-.39-.25-.15-.38-.35-.38-.58 0-.36.13-.64.39-.85.26-.21.63-.31 1.12-.31s.97.11 1.46.34c.49.23.79.52.92.88l2.94-1.35c-.2-.59-.56-1.12-1.08-1.57-.52-.45-1.15-.8-1.88-1.05s-1.52-.38-2.36-.38c-1.64 0-2.9.38-3.79 1.13-.89.76-1.34 1.83-1.34 3.21 0 .97.37 1.83 1.12 2.58.75.75 1.77 1.29 3.07 1.63l1.24.32c.45.11.8.24 1.07.39.26.15.39.39.39.71s-.16.57-.49.74ZM83.42 64.72l5.83 8.56 5.83-8.58v13.12h3.67v-18.9h-3.99l-5.51 8.15-5.51-8.15h-4.02v18.9h3.7v-13.1zM117.45 70.76c-.96.73-1.44 1.81-1.44 3.25 0 1.31.45 2.33 1.34 3.05.89.72 2.15 1.08 3.77 1.08.9 0 1.66-.16 2.28-.49.62-.32 1.1-.79 1.45-1.4l.05 1.57h3.32l.08-7.48c.02-1.3-.19-2.42-.64-3.36a4.808 4.808 0 0 0-2.03-2.2c-.91-.52-2.05-.78-3.41-.78-1.13 0-2.09.18-2.88.53-.78.35-1.42.8-1.9 1.35s-.86 1.11-1.11 1.69l3.13 1.08c.32-.52.72-.91 1.19-1.16.47-.25.99-.38 1.57-.38.74 0 1.3.22 1.7.66.4.44.66 1.08.78 1.9h-3.19c-1.75 0-3.1.36-4.06 1.09Zm7.33 1.55v.05c0 .47-.14.92-.41 1.35-.27.43-.64.78-1.11 1.05-.47.27-.99.4-1.57.4-.65 0-1.15-.11-1.51-.34-.36-.22-.54-.54-.54-.93 0-.5.22-.9.67-1.17.45-.28 1.26-.42 2.43-.42h2.03ZM155.57 249.46l12.97 12.92h-37.6v10.42h37.29l-12.93 12.64 7.19 7.56 26.56-25.37-26.28-25.73-7.2 7.56zM139.5 226.94h10.11v-28.98h10.77v-9.29h-31.71v9.29h10.83v28.98zM109.1 212.29h12.57v-9.03H109.1v-5.3h15.53v-9.29H98.98v38.27h26.03v-9.3H109.1v-5.35zM178.92 197.96h10.82v28.98h10.12v-28.98h10.77v-9.29h-31.71v9.29zM164.59 188.67h10.11v38.27h-10.11zM214.84 188.67h10.11v38.27h-10.11zM241.63 212.29h12.58v-9.03h-12.58v-5.3h15.53v-9.29h-25.64v38.27h26.02v-9.3h-15.91v-5.35zM88.32 190.36c-2.22-1.13-4.78-1.7-7.65-1.7H64.81v38.27h10.11v-11.48h5.74c2.88 0 5.43-.57 7.65-1.72 2.22-1.15 3.96-2.73 5.22-4.76 1.26-2.02 1.89-4.35 1.89-6.97s-.63-4.94-1.89-6.94c-1.26-2.01-3-3.57-5.22-4.7Zm-4.57 14.65c-.86.76-1.98 1.15-3.36 1.15h-5.47v-8.26h5.47c1.38 0 2.51.38 3.36 1.15.86.77 1.28 1.75 1.28 2.95s-.43 2.24-1.28 3.01ZM108.58 170.06l2.24-2.46 10.5 13.78h12.57l-16.4-21 15.91-17.28h-13.29l-11.53 12.74V143.1H98.46v38.28h10.12v-11.32zM248.52 145.56c-3.23-1.64-6.93-2.46-11.13-2.46h-12.8v38.27h12.8c4.19 0 7.9-.82 11.13-2.46 3.23-1.64 5.75-3.9 7.57-6.78 1.82-2.88 2.73-6.18 2.73-9.9s-.91-7.06-2.73-9.92c-1.82-2.86-4.35-5.11-7.57-6.75Zm-.9 20.56a8.8 8.8 0 0 1-2.3 3.01c-.98.84-2.15 1.49-3.5 1.97-1.35.47-2.83.71-4.43.71h-2.68v-19.14h2.68c1.6 0 3.08.24 4.43.71 1.35.47 2.52 1.13 3.5 1.97.98.84 1.75 1.84 2.3 3.01.55 1.17.82 2.46.82 3.88s-.27 2.72-.82 3.88ZM273.59 172.08v-5.36h12.58v-9.02h-12.58v-5.3h15.53v-9.3h-25.65v38.28h26.03v-9.3h-15.91zM163.74 172.08h-15.91v-5.36h12.58v-9.02h-12.58v-5.3h15.53v-9.3h-25.64v38.28h26.02v-9.3zM30.5 152.4h10.83v28.98h10.11V152.4h10.77v-9.3H30.5v9.3zM92.06 152.4v-9.3H66.42v38.28h26.03v-9.3H76.54v-5.36h12.57v-9.02H76.54v-5.3h15.52zM179.87 159.56l15.48 21.82h10.11V143.1h-10.11v21.05l-14.93-21.05h-10.66v38.28h10.11v-21.82z" style="fill:#ffee72"/></svg>