<svg xmlns="http://www.w3.org/2000/svg" viewBox="0 0 320 320"><defs><clipPath id="a"><path d="M0 0h320v320H0z" style="fill:none;"/></clipPath></defs><g style="clip-path:url(#a);"><path d="M160 320c88.37 0 160-71.63 160-160S248.37 0 160 0 0 71.63 0 160s71.63 160 160 160" style="fill:#bc4927;"/><path d="M282.93 221.25h-3.83v20.3h3.83v-20.3Zm-16.47 20.3v-7.6c0-1.22.27-2.14.8-2.75.53-.62 1.29-.92 2.28-.9.54 0 1.02.12 1.42.36.41.24.72.63.94 1.17.22.54.33 1.31.33 2.29v7.42h3.83v-8.21c.02-1.55-.18-2.81-.61-3.78-.42-.98-1.04-1.7-1.86-2.16-.81-.46-1.79-.7-2.93-.7-.93 0-1.75.2-2.48.59-.73.4-1.32.97-1.78 1.73l-.17-1.97h-3.6v14.5h3.83Zm-7.44-.26c.45-.46.68-1.01.68-1.65s-.23-1.16-.68-1.62c-.45-.46-1-.7-1.64-.7s-1.18.23-1.64.7c-.45.46-.68 1-.68 1.62s.23 1.19.68 1.65c.45.46 1 .7 1.64.7s1.18-.23 1.64-.7m-15.4-3.42c-.51-.35-.91-.83-1.2-1.45-.29-.62-.43-1.32-.43-2.12s.15-1.49.43-2.1c.29-.61.7-1.09 1.22-1.43s1.11-.52 1.77-.52c.7 0 1.31.17 1.84.52s.95.83 1.25 1.43c.3.61.45 1.31.45 2.1s-.15 1.5-.46 2.12c-.31.62-.73 1.1-1.26 1.45-.53.35-1.15.52-1.84.52-.66 0-1.24-.17-1.75-.52m6.19 3.1c.98-.62 1.74-1.5 2.28-2.64.54-1.14.81-2.48.81-4.03s-.27-2.91-.81-4.04-1.3-2.01-2.28-2.62c-.98-.62-2.13-.93-3.47-.93-.97 0-1.82.2-2.55.59-.74.4-1.34.97-1.83 1.73v-7.77h-3.83v20.3h3.62l.15-2.06c.5.77 1.12 1.37 1.86 1.78.74.41 1.6.62 2.58.62 1.33 0 2.49-.31 3.47-.93m-23.45.58v-3.89l1.6-1.74 3.86 5.63h4.49l-5.92-8.38 5.48-6.12h-4.55l-4.96 5.39v-11.19h-3.83v20.3h3.83Zm-15.64-3.68c-.51-.35-.91-.83-1.2-1.45-.29-.62-.43-1.32-.43-2.12s.15-1.49.43-2.1c.29-.61.7-1.09 1.22-1.43s1.11-.52 1.77-.52c.7 0 1.31.17 1.84.52s.95.83 1.25 1.43c.3.61.45 1.31.45 2.1s-.15 1.5-.46 2.12c-.31.62-.73 1.1-1.26 1.45-.53.35-1.15.52-1.84.52-.66 0-1.24-.17-1.75-.52m6.18 3.1c.98-.62 1.74-1.5 2.28-2.64.54-1.14.81-2.48.81-4.03s-.27-2.91-.81-4.04-1.3-2.01-2.28-2.62c-.98-.62-2.13-.93-3.47-.93-.97 0-1.82.2-2.55.59-.74.4-1.34.97-1.83 1.73v-7.77h-3.83v20.3h3.62l.15-2.06c.5.77 1.12 1.37 1.86 1.78.74.41 1.6.62 2.58.62 1.33 0 2.49-.31 3.47-.93m-29.53-3.5c-.54-.32-.97-.76-1.29-1.33-.32-.57-.48-1.21-.48-1.93s.15-1.38.45-1.93c.3-.55.71-.98 1.22-1.29.51-.31 1.11-.46 1.78-.46.93 0 1.71.28 2.35.86.64.57 1.01 1.31 1.13 2.22l.03 1.16c-.12.95-.48 1.72-1.09 2.31-.61.59-1.36.88-2.25.88-.7 0-1.32-.16-1.86-.48m5.28 9.71c1.06-.3 2-.69 2.81-1.18l-1.57-2.23c-.52.33-1.17.6-1.94.8-.77.2-1.5.3-2.18.3-1.62 0-3.11-.26-4.47-.78-1.35-.52-2.53-1.26-3.52-2.2-1-.95-1.76-2.07-2.3-3.36-.54-1.29-.81-2.73-.81-4.29s.27-3 .81-4.29 1.31-2.42 2.3-3.38c1-.96 2.17-1.7 3.52-2.22 1.35-.52 2.84-.78 4.47-.78 1.45 0 2.78.26 4 .78 1.22.52 2.27 1.26 3.15 2.22.88.96 1.57 2.08 2.06 3.38s.74 2.73.74 4.29c0 1.03-.12 1.93-.36 2.71s-.57 1.4-1 1.84c-.43.44-.92.67-1.48.67-.37 0-.67-.1-.9-.3-.23-.2-.35-.55-.35-1.03v-10.47h-3.19v1.65c-.52-.62-1.16-1.1-1.91-1.44-.75-.34-1.59-.51-2.49-.51-1.18 0-2.22.3-3.13.88-.91.59-1.62 1.4-2.13 2.42-.51 1.03-.77 2.21-.77 3.57s.26 2.52.77 3.57c.51 1.04 1.22 1.86 2.13 2.45.91.59 1.95.88 3.13.88.99 0 1.88-.2 2.68-.61.8-.41 1.47-.96 2.02-1.65.19 1.04.64 1.82 1.35 2.33.71.51 1.55.77 2.54.77 1.16 0 2.18-.33 3.07-1 .89-.67 1.59-1.58 2.1-2.74.51-1.16.77-2.49.77-4 0-1.97-.31-3.78-.93-5.41-.62-1.63-1.5-3.05-2.65-4.25-1.15-1.2-2.51-2.13-4.07-2.78-1.57-.66-3.28-.99-5.13-.99-2.05 0-3.93.33-5.63.99-1.7.66-3.18 1.58-4.42 2.78-1.25 1.2-2.21 2.61-2.89 4.25-.68 1.63-1.01 3.44-1.01 5.41s.34 3.75 1.01 5.38a12.48 12.48 0 0 0 2.89 4.25c1.25 1.2 2.72 2.13 4.42 2.78 1.7.66 3.58.99 5.63.99.85 0 1.81-.15 2.87-.45m-28.18-16.2c.36-.37.77-.63 1.25-.8.47-.17.91-.25 1.32-.25s.86.09 1.31.26c.44.17.83.44 1.16.81.33.37.52.85.58 1.45h-6.26c.08-.62.29-1.11.65-1.48m5.51 10.45c.89-.31 1.66-.76 2.31-1.35.65-.59 1.17-1.29 1.58-2.1l-3.42-1.33c-.27.54-.66.98-1.16 1.32-.5.34-1.15.51-1.94.51-.93 0-1.76-.28-2.49-.86-.73-.57-1.15-1.34-1.25-2.31h10.61c0-1.84-.32-3.4-.97-4.68-.65-1.29-1.51-2.26-2.58-2.93s-2.25-1-3.52-1c-1.47 0-2.77.32-3.9.97a7.084 7.084 0 0 0-2.67 2.68c-.65 1.14-.97 2.46-.97 3.94s.31 2.8.94 3.94c.63 1.14 1.49 2.04 2.6 2.68 1.1.65 2.37.97 3.8.97 1.14 0 2.16-.15 3.04-.46m-22.25.13v-7.6c0-1.22.27-2.14.8-2.75.53-.62 1.29-.92 2.28-.9.54 0 1.01.12 1.42.36.41.24.72.63.94 1.17.22.54.33 1.31.33 2.29v7.42h3.83v-8.21c.02-1.55-.18-2.81-.61-3.78-.43-.98-1.04-1.7-1.86-2.16-.81-.46-1.79-.7-2.93-.7-.93 0-1.75.2-2.48.59-.73.4-1.32.97-1.78 1.73l-.17-1.97h-3.6v14.5h3.83Zm-16.19-4.13c-.53-.34-.94-.8-1.23-1.39-.29-.59-.45-1.26-.46-2.01.02-.77.17-1.45.46-2.03.29-.58.7-1.03 1.22-1.36.52-.33 1.12-.49 1.8-.49s1.23.16 1.73.49c.49.33.88.78 1.16 1.36.28.58.42 1.26.42 2.03s-.13 1.43-.41 2.01c-.27.59-.65 1.05-1.15 1.39-.49.34-1.07.51-1.73.51s-1.28-.17-1.81-.51m5.51 9.41c1.13-.6 2.01-1.48 2.62-2.65.62-1.17.93-2.57.93-4.19v-12.93h-3.83v2.26a5.28 5.28 0 0 0-1.88-1.93c-.77-.45-1.65-.68-2.64-.68-1.33 0-2.49.31-3.46.91-.98.61-1.74 1.47-2.28 2.58-.54 1.11-.81 2.42-.81 3.93s.27 2.67.81 3.71 1.3 1.86 2.28 2.44c.98.58 2.13.87 3.46.87.99 0 1.87-.22 2.64-.65.77-.43 1.4-1.03 1.88-1.78v1.39c0 .97-.17 1.76-.51 2.39-.34.63-.8 1.09-1.39 1.39-.59.3-1.27.45-2.04.45-.81 0-1.53-.07-2.15-.22-.62-.15-1.15-.32-1.6-.52-.45-.2-.8-.38-1.07-.54l-1.51 3.07c.37.25.84.5 1.42.75s1.29.45 2.15.61c.85.16 1.83.23 2.93.23 1.57 0 2.92-.3 4.05-.9m-22.32-8.47c-.39-.24-.58-.58-.58-1 0-.54.24-.96.73-1.26.48-.3 1.35-.45 2.61-.45h2.17v.06c0 .5-.14.99-.43 1.45a3.4 3.4 0 0 1-1.19 1.13c-.5.29-1.06.44-1.68.44-.7 0-1.24-.12-1.62-.36m3.43 3.02a3.7 3.7 0 0 0 1.55-1.51l.06 1.68h3.57l.09-8.03c.02-1.39-.21-2.6-.68-3.61s-1.2-1.8-2.18-2.36-2.2-.84-3.67-.84c-1.22 0-2.25.19-3.09.57s-1.52.86-2.04 1.45-.92 1.19-1.19 1.81l3.36 1.16c.35-.56.77-.98 1.28-1.25.5-.27 1.06-.41 1.68-.41.79 0 1.4.24 1.83.71.43.47.71 1.16.84 2.04h-3.42c-1.88 0-3.33.39-4.37 1.17-1.03.78-1.55 1.95-1.55 3.49 0 1.41.48 2.5 1.43 3.28s2.31 1.16 4.05 1.16c.97 0 1.78-.17 2.45-.52m-18.97-3.5c-.51-.35-.91-.83-1.2-1.45-.29-.62-.43-1.32-.43-2.12s.15-1.49.43-2.1c.29-.61.7-1.09 1.22-1.43s1.11-.52 1.77-.52c.7 0 1.31.17 1.84.52s.95.83 1.25 1.43c.3.61.45 1.31.45 2.1s-.15 1.5-.46 2.12c-.31.62-.73 1.1-1.26 1.45-.53.35-1.14.52-1.84.52-.66 0-1.24-.17-1.75-.52m-1.66 9.48v-7.77c.48.74 1.09 1.31 1.83 1.71.73.41 1.59.61 2.55.61 1.33 0 2.49-.31 3.46-.93.98-.62 1.74-1.5 2.28-2.64.54-1.14.81-2.48.81-4.03s-.27-2.91-.81-4.04-1.3-2.01-2.28-2.62c-.98-.62-2.13-.93-3.46-.93-.99 0-1.85.21-2.6.62-.74.42-1.36 1.01-1.84 1.78l-.17-2.06h-3.6v20.3h3.83Zm-25.43-5.8v-7.6c0-1.22.25-2.14.74-2.75s1.2-.92 2.13-.9c.5 0 .94.12 1.32.36.38.24.67.63.87 1.17s.31 1.31.31 2.29v7.42h3.83v-7.6c0-1.22.25-2.14.75-2.75.5-.62 1.22-.92 2.15-.9.5 0 .94.12 1.3.36.37.24.66.63.87 1.17.21.54.32 1.31.32 2.29v7.42h3.83v-8.29c0-2.22-.44-3.87-1.33-4.94-.89-1.07-2.18-1.61-3.89-1.61-1.03 0-1.92.27-2.7.8-.77.53-1.37 1.29-1.8 2.28-.37-1.04-.95-1.82-1.75-2.32-.8-.5-1.79-.75-2.97-.75-.85 0-1.62.19-2.32.57s-1.27.93-1.71 1.67l-.17-1.89h-3.6v14.5h3.83Zm-15.57-3.2c-.39-.24-.58-.58-.58-1 0-.54.24-.96.73-1.26.48-.3 1.35-.45 2.61-.45h2.17v.06c0 .5-.15.99-.44 1.45s-.69.84-1.19 1.13c-.5.29-1.06.44-1.68.44-.7 0-1.24-.12-1.62-.36m3.43 3.02a3.7 3.7 0 0 0 1.55-1.51l.06 1.68h3.57l.09-8.03c.02-1.39-.21-2.6-.68-3.61-.47-1.01-1.2-1.8-2.18-2.36-.98-.56-2.2-.84-3.67-.84-1.22 0-2.25.19-3.09.57-.84.38-1.52.86-2.05 1.45-.52.59-.92 1.19-1.19 1.81l3.36 1.16c.35-.56.77-.98 1.28-1.25.5-.27 1.06-.41 1.68-.41.79 0 1.4.24 1.83.71.42.47.71 1.16.84 2.04h-3.42c-1.88 0-3.33.39-4.36 1.17-1.03.78-1.55 1.95-1.55 3.49 0 1.41.48 2.5 1.44 3.28.96.77 2.31 1.16 4.05 1.16.97 0 1.78-.17 2.45-.52m-12.01-.6c1.19-.75 2.06-1.82 2.62-3.19l-3.62-1.28c-.27.6-.69 1.08-1.26 1.45-.57.37-1.2.55-1.9.55s-1.35-.17-1.91-.52c-.56-.35-.99-.82-1.31-1.41-.31-.59-.46-1.28-.46-2.07s.16-1.49.46-2.09c.31-.6.74-1.07 1.28-1.41.54-.34 1.17-.51 1.88-.51s1.33.17 1.9.51c.57.34.99.79 1.26 1.35l3.6-1.28c-.54-1.35-1.41-2.39-2.61-3.1-1.2-.72-2.52-1.07-3.97-1.07s-2.84.32-4 .97a7.101 7.101 0 0 0-2.73 2.68c-.66 1.14-.99 2.46-.99 3.94s.33 2.78.99 3.93a7.067 7.067 0 0 0 2.75 2.7c1.18.65 2.52.97 4.03.97s2.8-.38 3.99-1.13M185.87 192.25h-3.83v20.3h3.83v-20.3Zm-7.73 2.8c.43-.44.65-.95.65-1.55s-.22-1.12-.65-1.55c-.43-.44-.95-.65-1.55-.65s-1.09.22-1.54.65c-.45.43-.67.95-.67 1.55s.22 1.12.67 1.55c.44.43.96.65 1.54.65s1.12-.22 1.55-.65m.36 3h-3.83v14.5h3.83v-14.5Zm-15.8 11.3c-.39-.24-.58-.58-.58-1 0-.54.24-.96.73-1.26.48-.3 1.35-.45 2.61-.45h2.18v.06c0 .5-.15.99-.44 1.45a3.4 3.4 0 0 1-1.19 1.13c-.5.29-1.06.43-1.68.43-.7 0-1.24-.12-1.62-.36m3.42 3.03a3.7 3.7 0 0 0 1.55-1.51l.06 1.68h3.57l.09-8.03c.02-1.39-.21-2.6-.68-3.61a5.22 5.22 0 0 0-2.17-2.36c-.98-.56-2.2-.84-3.67-.84-1.22 0-2.25.19-3.09.57-.84.38-1.52.86-2.04 1.45s-.92 1.19-1.19 1.81l3.36 1.16c.35-.56.77-.98 1.28-1.25.5-.27 1.06-.41 1.68-.41.79 0 1.4.24 1.83.71.43.47.71 1.16.84 2.04h-3.42c-1.88 0-3.33.39-4.37 1.18-1.03.78-1.55 1.95-1.55 3.49 0 1.41.48 2.5 1.43 3.28.96.77 2.31 1.16 4.05 1.16.97 0 1.78-.17 2.45-.52m-27.48.17v-14.07l6.26 9.19 6.26-9.22v14.09h3.94v-20.3h-4.29l-5.92 8.76-5.92-8.76h-4.32v20.3h3.97ZM301.35 177.03v-22.26h8.27v-7.14h-24.36v7.14h8.32v22.26h7.77Zm-36.22-7.66c-1.16-.69-2.08-1.63-2.75-2.84s-1.01-2.59-1.01-4.16.33-2.96.99-4.18a7.297 7.297 0 0 1 2.73-2.86c1.16-.69 2.48-1.03 3.97-1.03s2.85.34 4.01 1.03c1.16.69 2.07 1.64 2.73 2.86.66 1.22.99 2.61.99 4.18s-.32 2.95-.97 4.16a7.21 7.21 0 0 1-2.69 2.84c-1.15.69-2.48 1.03-3.99 1.03s-2.85-.34-4.01-1.03m12.11 6.22c2.35-1.3 4.19-3.09 5.52-5.38 1.33-2.28 1.99-4.89 1.99-7.83s-.67-5.59-2.02-7.87-3.19-4.07-5.54-5.38c-2.35-1.3-5.07-1.95-8.15-1.95s-5.75.65-8.11 1.95c-2.35 1.3-4.2 3.09-5.54 5.38-1.34 2.28-2.02 4.91-2.02 7.87s.67 5.55 2.02 7.83c1.34 2.28 3.2 4.07 5.56 5.38 2.37 1.3 5.09 1.95 8.17 1.95s5.75-.65 8.11-1.95m-45.58-6.22a7.432 7.432 0 0 1-2.75-2.84c-.67-1.2-1.01-2.59-1.01-4.16s.33-2.96.99-4.18a7.297 7.297 0 0 1 2.73-2.86c1.16-.69 2.48-1.03 3.97-1.03s2.85.34 4.01 1.03c1.16.69 2.07 1.64 2.73 2.86.66 1.22.99 2.61.99 4.18s-.32 2.95-.97 4.16a7.21 7.21 0 0 1-2.69 2.84c-1.15.69-2.48 1.03-3.99 1.03s-2.85-.34-4.01-1.03m12.12 6.22c2.35-1.3 4.19-3.09 5.52-5.38 1.33-2.28 1.99-4.89 1.99-7.83s-.67-5.59-2.02-7.87c-1.34-2.28-3.19-4.07-5.54-5.38-2.35-1.3-5.07-1.95-8.15-1.95s-5.75.65-8.11 1.95-4.2 3.09-5.54 5.38c-1.34 2.28-2.02 4.91-2.02 7.87s.67 5.55 2.02 7.83c1.34 2.28 3.2 4.07 5.57 5.38 2.37 1.3 5.09 1.95 8.17 1.95s5.75-.65 8.11-1.95m-47.08 1.44v-16.76l11.89 16.76h7.77v-29.4h-7.77v16.17l-11.47-16.17h-8.19v29.4h7.77Zm-12.39 0v-7.14h-12.22v-4.12h9.66v-6.93h-9.66v-4.07h11.93v-7.14h-19.7v29.4h19.99Zm-29.76-.88c1.97-.92 3.55-2.32 4.73-4.2s1.81-4.23 1.89-7.06v-4.33h-13.94v5.88h6.47c-.14.81-.47 1.52-.99 2.12-.52.6-1.18 1.07-2 1.41-.81.34-1.72.5-2.73.5-1.57 0-2.93-.35-4.1-1.05a6.99 6.99 0 0 1-2.67-2.9c-.62-1.23-.92-2.63-.92-4.2s.32-3 .97-4.2c.64-1.2 1.53-2.15 2.65-2.84 1.12-.69 2.41-1.03 3.86-1.03.73 0 1.45.13 2.16.4.71.27 1.37.64 1.97 1.11.6.48 1.1 1.02 1.49 1.64l6.47-3.82c-.79-1.26-1.74-2.37-2.86-3.34-1.12-.97-2.44-1.73-3.97-2.29-1.53-.56-3.28-.84-5.27-.84-3.02 0-5.7.65-8.02 1.95-2.32 1.3-4.15 3.09-5.46 5.38-1.32 2.28-1.97 4.91-1.97 7.87s.66 5.59 1.97 7.88c1.32 2.28 3.14 4.07 5.46 5.38 2.32 1.3 5 1.95 8.02 1.95 2.55 0 4.81-.46 6.78-1.39m-42.85-21.15h2.06c1.23 0 2.36.18 3.4.55 1.04.36 1.93.87 2.69 1.51s1.34 1.41 1.76 2.31c.42.9.63 1.89.63 2.98s-.21 2.09-.63 2.98c-.42.9-1.01 1.67-1.76 2.31-.76.64-1.65 1.15-2.69 1.51-1.04.36-2.17.55-3.4.55h-2.06v-14.7Zm2.06 22.05c3.22 0 6.07-.63 8.55-1.89 2.48-1.26 4.42-3 5.82-5.21 1.4-2.21 2.1-4.75 2.1-7.6s-.7-5.43-2.1-7.62c-1.4-2.2-3.34-3.93-5.82-5.19-2.48-1.26-5.33-1.89-8.55-1.89h-9.83v29.4h9.83Zm-34.53 0v-16.76l11.89 16.76h7.77v-29.4H91.1v16.17l-11.47-16.17h-8.19v29.4h7.77Zm-30.97-7.66a7.432 7.432 0 0 1-2.75-2.84c-.67-1.2-1.01-2.59-1.01-4.16s.33-2.96.99-4.18a7.297 7.297 0 0 1 2.73-2.86c1.16-.69 2.48-1.03 3.97-1.03s2.85.34 4.01 1.03c1.16.69 2.07 1.64 2.73 2.86.66 1.22.99 2.61.99 4.18s-.32 2.95-.97 4.16a7.21 7.21 0 0 1-2.69 2.84c-1.15.69-2.48 1.03-3.99 1.03s-2.85-.34-4.01-1.03m12.12 6.22c2.35-1.3 4.19-3.09 5.52-5.38 1.33-2.28 2-4.89 2-7.83s-.67-5.59-2.02-7.87c-1.34-2.28-3.19-4.07-5.54-5.38-2.35-1.3-5.07-1.95-8.15-1.95s-5.75.65-8.11 1.95c-2.35 1.3-4.2 3.09-5.54 5.38-1.34 2.28-2.02 4.91-2.02 7.87s.67 5.55 2.02 7.83c1.34 2.28 3.2 4.07 5.56 5.38s5.09 1.95 8.17 1.95 5.75-.65 8.11-1.95m-40.62-21.95h2.48c.9 0 1.62.22 2.18.67.56.45.84 1.08.84 1.89s-.28 1.44-.84 1.89c-.56.45-1.29.67-2.18.67h-2.48v-5.12Zm0 11.3h3.57c.92 0 1.66.23 2.2.69s.82 1.09.82 1.87-.27 1.43-.82 1.93-1.28.76-2.2.76h-3.57v-5.25Zm4.5 12.09c1.99 0 3.75-.34 5.27-1.01s2.72-1.66 3.59-2.96c.87-1.3 1.3-2.89 1.3-4.77 0-1.65-.35-3.05-1.05-4.18-.7-1.13-1.69-2.05-2.98-2.75.9-.73 1.6-1.53 2.1-2.39.5-.87.76-1.75.76-2.65 0-1.99-.45-3.63-1.34-4.91-.9-1.29-2.13-2.24-3.7-2.86s-3.37-.92-5.42-.92H12.19v29.4h12.05ZM207.19 117.85h2.06c1.23 0 2.37.18 3.4.55 1.04.36 1.93.87 2.69 1.51s1.34 1.41 1.76 2.31c.42.9.63 1.89.63 2.98s-.21 2.09-.63 2.98-1.01 1.67-1.76 2.31c-.76.64-1.65 1.15-2.69 1.51-1.04.36-2.17.55-3.4.55h-2.06v-14.7Zm2.05 22.05c3.22 0 6.07-.63 8.55-1.89s4.42-3 5.82-5.21c1.4-2.21 2.1-4.75 2.1-7.6s-.7-5.43-2.1-7.62c-1.4-2.2-3.34-3.93-5.82-5.19-2.48-1.26-5.33-1.89-8.55-1.89h-9.83v29.4h9.83Zm-29.9-22.3h3.99c1.06 0 1.92.27 2.58.82.66.55.99 1.24.99 2.08 0 .56-.15 1.06-.46 1.51-.31.45-.73.8-1.26 1.05s-1.15.38-1.85.38h-3.99v-5.84Zm0 22.3v-9.32h2.73l5.29 9.32h8.9l-6.47-10.71c1.62-.84 2.91-2.02 3.86-3.53.95-1.51 1.43-3.23 1.43-5.17s-.48-3.69-1.45-5.19-2.3-2.67-4.01-3.53c-1.71-.85-3.67-1.28-5.88-1.28h-12.18v29.4h7.77Zm-30.97-7.67c-1.16-.69-2.08-1.63-2.75-2.84s-1.01-2.59-1.01-4.16.33-2.96.99-4.18a7.297 7.297 0 0 1 2.73-2.86c1.16-.69 2.48-1.03 3.97-1.03s2.85.34 4.01 1.03c1.16.69 2.07 1.64 2.73 2.86.66 1.22.99 2.61.99 4.18s-.32 2.95-.97 4.16c-.65 1.2-1.54 2.15-2.69 2.84s-2.48 1.03-3.99 1.03-2.85-.34-4.01-1.03m12.11 6.22c2.35-1.3 4.19-3.09 5.52-5.38 1.33-2.28 1.99-4.89 1.99-7.83s-.67-5.59-2.02-7.88c-1.34-2.28-3.19-4.07-5.54-5.38s-5.07-1.95-8.15-1.95-5.75.65-8.11 1.95-4.2 3.09-5.54 5.38c-1.34 2.28-2.02 4.91-2.02 7.88s.67 5.55 2.02 7.83c1.34 2.28 3.2 4.07 5.57 5.38 2.37 1.3 5.09 1.95 8.17 1.95s5.75-.65 8.11-1.95m-50.44 1.45 4.37-17.39 4.37 17.39h8.06l8.44-29.4h-7.94l-4.54 16.97-4.54-16.97h-7.73l-4.41 17.43-4.66-17.43h-7.94l8.44 29.4h8.06ZM182.58 46.28h-5.02v-5.1c0-2.07-.62-4.09-1.78-5.79-1.16-1.7-2.8-3.01-4.71-3.74a9.882 9.882 0 0 0-5.96-.36c-1.98.5-3.76 1.6-5.1 3.15a9.992 9.992 0 0 0-4.83-3.08 9.881 9.881 0 0 0-5.7.1c-1.85.59-3.49 1.72-4.73 3.24a10.26 10.26 0 0 0-2.23 5.33 9.903 9.903 0 0 0-5.03-1.4c-1.77-.01-3.51.45-5.04 1.35a10.182 10.182 0 0 0-5.05 8.84v12.75c0 8.79 3.44 17.22 9.55 23.43 6.11 6.21 14.41 9.71 23.06 9.71s16.94-3.49 23.06-9.71c6.11-6.21 9.55-14.64 9.55-23.43v-5.1c0-2.7-1.06-5.3-2.94-7.21a9.96 9.96 0 0 0-7.1-2.99m-15.05-10.18c1.33 0 2.61.54 3.55 1.49.94.96 1.47 2.25 1.47 3.6v5.1h-10.03v-5.1c0-1.35.53-2.65 1.47-3.6.94-.96 2.22-1.49 3.55-1.49m-20.08 5.09c0-1.35.53-2.65 1.47-3.6.94-.96 2.22-1.49 3.55-1.49s2.61.54 3.55 1.49c.94.96 1.47 2.25 1.47 3.6v12.75c0 1.35-.53 2.65-1.47 3.61s-2.22 1.49-3.55 1.49-2.61-.54-3.55-1.49a5.15 5.15 0 0 1-1.47-3.61V41.18Zm-15.05 7.65c0-1.35.53-2.65 1.47-3.6.94-.96 2.22-1.49 3.55-1.49s2.61.54 3.55 1.49c.94.96 1.47 2.25 1.47 3.6v5.1c0 1.35-.53 2.65-1.47 3.61s-2.22 1.49-3.55 1.49-2.61-.54-3.55-1.49a5.15 5.15 0 0 1-1.47-3.61v-5.1Zm55.18 12.75c0 7.33-2.83 14.37-7.88 19.62-5.05 5.24-11.92 8.26-19.13 8.42-7.21.16-14.2-2.57-19.46-7.58s-8.38-11.93-8.69-19.26a9.924 9.924 0 0 0 6.63 1.22 9.96 9.96 0 0 0 5.89-3.33c1.73 2 4.16 3.23 6.77 3.43 2.61.2 5.2-.65 7.2-2.37.9 1.52 2.18 2.78 3.7 3.64-1.61 1.43-2.91 3.2-3.79 5.18s-1.34 4.14-1.34 6.31c0 .68.26 1.32.74 1.8s1.11.75 1.77.75 1.3-.27 1.77-.75.74-1.13.74-1.8c0-2.7 1.06-5.3 2.94-7.21a9.96 9.96 0 0 1 7.1-2.99c.67 0 1.3-.27 1.77-.75s.74-1.13.74-1.8-.26-1.32-.74-1.8c-.47-.48-1.11-.75-1.77-.75h-5.02c-1.33 0-2.61-.54-3.55-1.49a5.144 5.144 0 0 1-1.47-3.6v-5.1h20.07c1.33 0 2.61.54 3.55 1.49a5.15 5.15 0 0 1 1.47 3.61v5.1Z" style="fill:#f9ec7a;"/></g></svg>